<?xml version="1.0" standalone="no"?>
<!DOCTYPE svg PUBLIC "-//W3C//DTD SVG 1.1//EN" "http://www.w3.org/Graphics/SVG/1.1/DTD/svg11.dtd" >
<svg xmlns="http://www.w3.org/2000/svg" xmlns:xlink="http://www.w3.org/1999/xlink" version="1.1">
<metadata>
Created by FontForge 20170731 at Tue Aug  6 20:50:04 2013
 By Aleksey,,,
(c) 2005 Mike Abbink, Paulvan der Laan. Published by FSI FontShop International GmbH. Modified by Martin Sorger.
</metadata>
<defs>
<font id="WDRSans" horiz-adv-x="545" >
  <font-face 
    font-family="WDR Sans"
    font-weight="400"
    font-stretch="normal"
    units-per-em="1000"
    panose-1="0 0 4 0 0 0 0 0 0 0"
    ascent="800"
    descent="-200"
    x-height="480"
    cap-height="666"
    bbox="-190 -250 1195 893"
    underline-thickness="60"
    underline-position="-195"
    unicode-range="U+0020-25CA"
  />
<missing-glyph horiz-adv-x="500" 
d="M63 0v760h375v-760h-375zM125 63h250v635h-250v-635z" />
    <glyph glyph-name=".notdef" horiz-adv-x="500" 
d="M63 0v760h375v-760h-375zM125 63h250v635h-250v-635z" />
    <glyph glyph-name=".null" horiz-adv-x="0" 
 />
    <glyph glyph-name="nonmarkingreturn" horiz-adv-x="225" 
 />
    <glyph glyph-name="space" unicode=" " horiz-adv-x="225" 
 />
    <glyph glyph-name="exclam" unicode="!" horiz-adv-x="275" 
d="M92 666h90l-16 -467h-58zM137 -8q-24 0 -40.5 16.5t-16.5 40.5q0 23 17 39.5t40 16.5t40 -16.5t17 -39.5q0 -24 -16.5 -40.5t-40.5 -16.5z" />
    <glyph glyph-name="quotedbl" unicode="&#x22;" horiz-adv-x="371" 
d="M274 684q27 0 44 -19t17 -47q0 -48 -37 -103q-32 -48 -77 -81l-29 26q55 52 55 92q0 15 -13.5 37.5t-13.5 40.5q0 23 15.5 38.5t38.5 15.5zM106 684q27 0 44 -19t17 -47q0 -48 -37 -103q-32 -48 -77 -81l-29 26q55 52 55 92q0 15 -13.5 37.5t-13.5 40.5q0 23 15.5 38.5
t38.5 15.5z" />
    <glyph glyph-name="numbersign" unicode="#" horiz-adv-x="494" 
d="M290 309l17 111h-102l-16 -111h101zM121 250h-98l10 59h97l17 111h-97l9 59h96l20 131h59l-20 -131h101l20 131h59l-20 -131h97l-10 -59h-96l-16 -111h96l-10 -59h-95l-21 -144h-59l21 144h-101l-22 -144h-59z" />
    <glyph glyph-name="dollar" unicode="$" horiz-adv-x="408" 
d="M178 -12q-82 7 -137 48l32 57q61 -43 129 -43q108 0 108 69q0 41 -67 72q-123 56 -124 57q-67 43 -67 113q0 54 37 89q34 32 89 39v104h71v-103q69 -9 118 -46l-35 -54q-51 39 -119 39q-90 0 -90 -65q0 -41 68 -73q62 -29 125 -57q68 -42 68 -105q0 -119 -135 -139v-113
h-71v111z" />
    <glyph glyph-name="percent" unicode="%" horiz-adv-x="826" 
d="M592 666h69l-427 -666h-69zM623 47q49 0 78 32t29 81q0 50 -29 81.5t-79 31.5q-49 0 -78.5 -31.5t-29.5 -80.5q0 -50 29.5 -82t79.5 -32zM623 -7q-76 0 -124.5 46t-48.5 121q0 74 48.5 120.5t122.5 46.5q75 0 124 -45.5t49 -120.5t-48 -121.5t-123 -46.5zM205 396
q49 0 78 32t29 81q0 50 -29 81.5t-79 31.5q-49 0 -78.5 -31.5t-29.5 -80.5q0 -50 29.5 -82t79.5 -32zM205 342q-76 0 -124.5 46t-48.5 121q0 74 48.5 120.5t122.5 46.5q75 0 124 -45.5t49 -120.5t-48 -121.5t-123 -46.5z" />
    <glyph glyph-name="ampersand" unicode="&#x26;" horiz-adv-x="625" 
d="M263 54q85 0 148 57l-194 204q-101 -57 -101 -142q0 -60 45 -91q40 -28 102 -28zM244 394q115 65 115 141q0 37 -26.5 59.5t-64.5 22.5q-42 0 -69 -23.5t-27 -65.5q0 -57 72 -134zM261 -12q-90 0 -153 45q-70 50 -70 137q0 66 41 114q31 37 98 74q-84 92 -84 166
q0 72 53 115q49 39 123 39q67 0 113 -36q51 -40 51 -105q0 -61 -48 -111q-33 -34 -102 -73l175 -186q40 64 55 151l70 -12q-18 -107 -79 -189l110 -117h-98l-60 64q-87 -76 -195 -76z" />
    <glyph glyph-name="quotesingle" unicode="'" horiz-adv-x="203" 
d="M106 684q27 0 44 -19t17 -47q0 -48 -37 -103q-32 -48 -77 -81l-29 26q55 52 55 92q0 15 -13.5 37.5t-13.5 40.5q0 23 15.5 38.5t38.5 15.5z" />
    <glyph glyph-name="parenleft" unicode="(" horiz-adv-x="309" 
d="M236 -177q-181 196 -181 457q0 121 48 238t133 202h70q-84 -84 -129.5 -200.5t-45.5 -238.5q0 -260 175 -458h-70z" />
    <glyph glyph-name="parenright" unicode=")" horiz-adv-x="309" 
d="M4 -177q84 87 129.5 202t45.5 237q0 260 -175 458h70q181 -196 181 -457q0 -122 -47.5 -238t-133.5 -202h-70z" />
    <glyph glyph-name="asterisk" unicode="*" horiz-adv-x="454" 
d="M98 361l85 114l-136 42l18 54l134 -47l-4 142h64l-4 -142l134 47l19 -54l-137 -42l85 -114l-46 -34l-83 119l-83 -119z" />
    <glyph glyph-name="plus" unicode="+" 
d="M40 345h202v202h61v-202h202v-61h-202v-202h-61v202h-202v61z" />
    <glyph glyph-name="comma" unicode="," horiz-adv-x="220" 
d="M108 112q28 0 45.5 -19t17.5 -48q0 -52 -36 -107q-31 -48 -78 -83l-31 28q55 52 55 90q0 15 -14 40t-14 42q0 24 15.5 40.5t39.5 16.5z" />
    <glyph glyph-name="hyphen" unicode="-" horiz-adv-x="309" 
d="M54 319h201v-64h-201v64z" />
    <glyph glyph-name="hyphen" unicode="&#x2010;" horiz-adv-x="309" 
d="M54 319h201v-64h-201v64z" />
    <glyph glyph-name="period" unicode="." horiz-adv-x="220" 
d="M110 -9q-26 0 -43.5 17.5t-17.5 43.5t17.5 43t43.5 17t43.5 -17t17.5 -43t-17.5 -43.5t-43.5 -17.5z" />
    <glyph glyph-name="slash" unicode="/" horiz-adv-x="402" 
d="M274 720h67l-236 -881h-66z" />
    <glyph glyph-name="zero" unicode="0" 
d="M271 51q82 0 119 107q25 72 25 175q0 102 -25 175q-37 107 -118 107q-82 0 -118 -107q-25 -72 -25 -175q0 -102 25 -175q36 -107 117 -107zM272 -12q-118 0 -177 120q-45 93 -45 225q0 135 43 226q58 119 178 119q118 0 178 -120q46 -94 46 -225q0 -132 -46 -225
q-59 -120 -177 -120z" />
    <glyph glyph-name="one" unicode="1" horiz-adv-x="340" 
d="M167 597l-131 -43l-16 62l160 50h62v-666h-75v597z" />
    <glyph glyph-name="two" unicode="2" 
d="M68 43q142 142 193 205q118 146 118 244q0 55 -30.5 88t-85.5 33q-83 0 -149 -66l-39 48q80 83 191 83q84 0 138 -45q57 -48 57 -130q0 -104 -103 -240q-53 -69 -183 -199q21 2 70 2h230v-66h-407v43z" />
    <glyph glyph-name="three" unicode="3" 
d="M201 -12q-78 0 -126 16l13 63q39 -14 115 -14q72 0 121 34q57 39 57 107q0 138 -225 138v54q74 0 133 32q72 38 72 106q0 87 -118 87q-80 0 -143 -55l-35 49q79 73 183 73q79 0 131 -33q61 -40 61 -115q0 -60 -46 -105q-41 -39 -103 -57v-1q69 -8 118 -53q52 -49 52 -116
q0 -100 -83 -158q-73 -52 -177 -52z" />
    <glyph glyph-name="four" unicode="4" 
d="M342 208v352h-1l-223 -354q68 3 224 2zM342 141h-313v61l309 464h77v-458h87v-67h-87v-141h-73v141z" />
    <glyph glyph-name="five" unicode="5" 
d="M175 -12q-62 0 -106 11l13 64q40 -10 95 -10q81 0 138 37q65 44 65 121q0 145 -208 145q-53 0 -75 -3l19 313h325v-66h-256l-11 -179q120 0 194 -42q92 -52 92 -163q0 -113 -89 -175q-77 -53 -196 -53z" />
    <glyph glyph-name="six" unicode="6" 
d="M284 51q57 0 91 45q31 41 31 100q0 146 -130 146q-80 0 -139 -57v-15q0 -89 29 -145q38 -74 118 -74zM278 -12q-106 0 -166 91q-52 79 -52 191q0 185 96 294q100 114 283 114l14 -59q-277 0 -311 -273q54 58 141 58q89 0 145 -57t56 -146q0 -92 -57.5 -152.5
t-148.5 -60.5z" />
    <glyph glyph-name="seven" unicode="7" 
d="M142 0l265 600h-330v66h411v-54l-276 -636z" />
    <glyph glyph-name="eight" unicode="8" 
d="M274 387q114 66 114 130q0 46 -32 71.5t-79 25.5t-80 -24q-37 -27 -37 -72q0 -68 114 -131zM272 53q55 0 91.5 30.5t36.5 83.5q0 49 -49 92q-26 24 -91 61q-59 -42 -79 -64q-38 -41 -38 -91q0 -55 38 -85q34 -27 91 -27zM270 -12q-86 0 -143 42q-63 48 -63 131
q0 109 146 189q-60 36 -87 68q-40 44 -40 100q0 72 62 118q56 42 131 42q78 0 130 -38q58 -42 58 -118q0 -57 -45 -101q-29 -30 -94 -65q155 -81 155 -190q0 -83 -65 -133q-59 -45 -145 -45z" />
    <glyph glyph-name="nine" unicode="9" 
d="M268 324q80 0 139 57v15q0 89 -28 145q-37 74 -117 74q-59 0 -93 -44q-31 -40 -31 -101q0 -146 130 -146zM97 41q270 0 305 279q-54 -58 -141 -58q-90 0 -145.5 56.5t-55.5 146.5q0 92 57 152.5t149 60.5q108 0 167 -90q51 -78 51 -192q0 -189 -90 -297
q-98 -117 -283 -117z" />
    <glyph glyph-name="colon" unicode=":" horiz-adv-x="225" 
d="M112 366q-26 0 -43.5 17.5t-17.5 43.5t17.5 43.5t43.5 17.5t43.5 -17.5t17.5 -43.5t-17.5 -43.5t-43.5 -17.5zM112 -9q-26 0 -43.5 18t-17.5 44t17.5 43t43.5 17t43.5 -17t17.5 -43t-17.5 -44t-43.5 -18z" />
    <glyph glyph-name="semicolon" unicode=";" horiz-adv-x="225" 
d="M109 112q28 0 45.5 -19t17.5 -48q0 -52 -36 -107q-31 -48 -78 -83l-31 28q55 52 55 90q0 15 -14 40t-14 42q0 24 15.5 40.5t39.5 16.5zM112 366q-26 0 -43.5 17.5t-17.5 43.5t17.5 43.5t43.5 17.5t43.5 -17.5t17.5 -43.5t-17.5 -43.5t-43.5 -17.5z" />
    <glyph glyph-name="less" unicode="&#x3c;" 
d="M38 316l446 222l23 -47l-358 -175l358 -168l-23 -51z" />
    <glyph glyph-name="equal" unicode="=" 
d="M40 406h465v-61h-465v61zM40 284h465v-61h-465v61z" />
    <glyph glyph-name="greater" unicode="&#x3e;" 
d="M507 316l-446 222l-23 -47l358 -175l-358 -168l23 -51z" />
    <glyph glyph-name="question" unicode="?" horiz-adv-x="405" 
d="M145 -8q-24 0 -40.5 16.5t-16.5 40.5q0 23 17 39.5t40 16.5t40 -16.5t17 -39.5q0 -24 -16.5 -40.5t-40.5 -16.5zM108 256q0 63 44 100q40 27 81 55q44 35 44 93q0 110 -123 110q-40 0 -82 -21l-27 58q52 27 114 27q85 0 138 -41q58 -46 58 -129q0 -65 -36 -108
q-21 -27 -73 -59q-47 -29 -57 -46.5t-11 -50.5q1 24 1 -51h-71v63z" />
    <glyph glyph-name="at" unicode="@" horiz-adv-x="765" 
d="M327 145q97 0 149 258q-40 10 -55 10q-65 0 -102 -73q-31 -60 -31 -131q0 -64 39 -64zM369 -91q-145 0 -237 92.5t-92 238.5q0 154 105 266.5t258 112.5q129 0 225 -84q101 -88 101 -216q0 -87 -43 -156q-49 -80 -131 -80q-50 0 -77.5 30.5t-27.5 81.5h-2
q-46 -112 -139 -112q-44 0 -70 37q-24 32 -24 78q0 105 52 181q59 85 160 85q25 0 117 -21l-22 -112q-17 -91 -17 -122q0 -27 13 -47q15 -23 40 -23q56 0 88 62q26 50 26 111q0 110 -79 181t-190 71q-122 0 -211 -101q-86 -97 -86 -220q0 -125 75 -201.5t199 -76.5
q86 0 149 29l23 -51q-87 -34 -183 -34z" />
    <glyph glyph-name="A" unicode="A" horiz-adv-x="627" 
d="M276 666h76l256 -666h-85l-61 165h-303l-61 -165h-77zM437 231q-43 114 -125 343h-2q-11 -35 -126 -343h253z" />
    <glyph glyph-name="B" unicode="B" horiz-adv-x="582" 
d="M274 380q146 0 146 115q0 106 -144 106h-103v-221h101zM277 65q78 0 118 21q53 28 53 99q0 131 -165 131h-110v-251h104zM96 666h186q218 0 218 -166q0 -117 -119 -147v-2q65 -11 106.5 -55t41.5 -109q0 -187 -250 -187h-183v666z" />
    <glyph glyph-name="C" unicode="C" horiz-adv-x="615" 
d="M378 -12q-145 0 -237 102q-88 98 -88 245q0 146 91 244.5t235 98.5q107 0 187 -50l-39 -59q-64 44 -150 44q-113 0 -180 -83q-62 -77 -62 -193q0 -120 61 -198q68 -85 184 -85q97 0 163 57l36 -56q-73 -67 -201 -67z" />
    <glyph glyph-name="D" unicode="D" horiz-adv-x="679" 
d="M254 64q293 0 293 275q0 141 -80 205q-73 58 -218 58h-75v-538h80zM96 666h156q171 0 269 -75q108 -84 108 -250q0 -169 -109 -258q-101 -83 -273 -83h-151v666z" />
    <glyph glyph-name="E" unicode="E" horiz-adv-x="523" 
d="M96 666h362v-66h-284v-214h252v-66h-252v-254h291v-66h-369v666z" />
    <glyph glyph-name="F" unicode="F" horiz-adv-x="510" 
d="M96 666h369v-66h-291v-232h256v-66h-256v-302h-78v666z" />
    <glyph glyph-name="G" unicode="G" horiz-adv-x="707" 
d="M384 -12q-146 0 -238.5 100t-92.5 247q0 149 93.5 246t241.5 97q129 0 210 -63l-41 -57q-69 55 -171 55q-119 0 -187 -80q-64 -75 -64 -196q0 -122 64 -199q68 -84 187 -84q109 0 165 41v187h-143v66h221v-291q-82 -69 -245 -69z" />
    <glyph glyph-name="H" unicode="H" horiz-adv-x="725" 
d="M96 666h78v-282h377v282h78v-666h-78v318h-377v-318h-78v666z" />
    <glyph glyph-name="I" unicode="I" horiz-adv-x="282" 
d="M102 666h78v-666h-78v666z" />
    <glyph glyph-name="J" unicode="J" horiz-adv-x="283" 
d="M36 -190q-37 0 -57 10l12 67q18 -7 39 -7q79 0 79 118v668h78v-680q0 -176 -151 -176z" />
    <glyph glyph-name="K" unicode="K" horiz-adv-x="579" 
d="M176 347l280 319h91l-280 -314l298 -352h-97zM96 666h77v-666h-77v666z" />
    <glyph glyph-name="L" unicode="L" horiz-adv-x="473" 
d="M96 666h78v-600h262v-66h-340v666z" />
    <glyph glyph-name="M" unicode="M" horiz-adv-x="852" 
d="M145 666h73q72 -191 207 -576h2q12 41 42 123l165 453h74l90 -666h-79l-57 436q-2 31 -9 93h-2q-9 -31 -29 -92l-159 -437h-75l-160 437q-14 39 -29 88h-1q-6 -52 -69 -525h-75z" />
    <glyph glyph-name="N" unicode="N" horiz-adv-x="711" 
d="M94 666h77l314 -451q23 -33 62 -98h2q-4 40 -4 82v467h72v-666h-72l-329 475q-19 28 -52 86h-2q4 -40 4 -69v-492h-72v666z" />
    <glyph glyph-name="O" unicode="O" horiz-adv-x="760" 
d="M379 53q115 0 183 84q63 77 63 195t-62 196q-68 85 -182 85q-115 0 -183 -84q-63 -78 -63 -195q0 -118 62 -196q68 -85 182 -85zM381 -12q-145 0 -238 100q-90 97 -90 244t90.5 246.5t235.5 99.5t238 -100q90 -97 90 -244t-89 -245q-92 -101 -237 -101z" />
    <glyph glyph-name="P" unicode="P" horiz-adv-x="542" 
d="M252 317q165 0 165 145q0 138 -162 138h-81v-283h78zM96 666h167q102 0 165 -48q69 -53 69 -153q0 -108 -70 -164q-64 -50 -175 -50h-78v-251h-78v666z" />
    <glyph glyph-name="Q" unicode="Q" horiz-adv-x="760" 
d="M379 53q115 0 183 84q63 77 63 195t-62 196q-68 85 -182 85q-115 0 -183 -84q-63 -78 -63 -195q0 -118 62 -196q68 -85 182 -85zM624 -162q-79 0 -145 43q-50 34 -109 107q-141 4 -230 104q-87 97 -87 240q0 147 90.5 246.5t235.5 99.5t238 -100q90 -97 90 -244
q0 -123 -65 -215q-69 -98 -186 -123q38 -48 73 -69q41 -25 96 -25q49 0 81 28l29 -58q-39 -34 -111 -34z" />
    <glyph glyph-name="R" unicode="R" horiz-adv-x="588" 
d="M286 363q144 0 144 120q0 117 -150 117h-106v-237h112zM96 666h193q96 0 155 -41q66 -48 66 -140q0 -73 -44 -122.5t-117 -55.5v-2q29 -21 70 -83l145 -222h-92l-114 181q-30 48 -45 67q-34 43 -60 49q-12 2 -30 2h-49v-299h-78v666z" />
    <glyph glyph-name="S" unicode="S" horiz-adv-x="515" 
d="M241 -12q-123 0 -197 74l40 55q64 -64 160 -64q54 0 96 29q46 32 46 84q0 67 -83 115q-77 40 -154 81q-83 56 -83 146q0 80 62 127q56 43 138 43q108 0 183 -58l-38 -57q-59 50 -146 50q-50 0 -84 -25q-38 -28 -38 -76q0 -62 83 -107q78 -41 156 -81q83 -60 83 -157
q0 -86 -71 -136q-63 -43 -153 -43z" />
    <glyph glyph-name="T" unicode="T" 
d="M233 600h-213v66h505v-66h-213v-600h-79v600z" />
    <glyph glyph-name="U" unicode="U" horiz-adv-x="690" 
d="M348 -12q-258 0 -258 261v417h78v-407q0 -204 182 -204q87 0 132 51t45 139v421h73v-413q0 -127 -62 -194q-64 -71 -190 -71z" />
    <glyph glyph-name="V" unicode="V" horiz-adv-x="616" 
d="M18 666h84l171 -459q21 -57 40 -117h2q15 51 39 117l167 459h77l-248 -666h-76z" />
    <glyph glyph-name="W" unicode="W" horiz-adv-x="896" 
d="M22 666h85l109 -445q18 -75 23 -116h2q8 46 30 116l141 445h80l142 -442q22 -68 29 -117h2q4 44 22 117l110 442h77l-178 -666h-71l-145 450q-22 68 -30 128h-2q-9 -58 -32 -128l-145 -450h-71z" />
    <glyph glyph-name="X" unicode="X" horiz-adv-x="565" 
d="M236 345l-200 321h89l161 -258l152 258h82l-195 -321l215 -345h-89l-176 282l-168 -282h-82z" />
    <glyph glyph-name="Y" unicode="Y" horiz-adv-x="555" 
d="M241 252l-223 414h87l178 -340h1l178 340h75l-218 -414v-252h-78v252z" />
    <glyph glyph-name="Z" unicode="Z" horiz-adv-x="561" 
d="M46 55l364 547h-347v64h439v-51l-369 -551h381v-64h-468v55z" />
    <glyph glyph-name="bracketleft" unicode="[" horiz-adv-x="306" 
d="M80 720h201v-57h-130v-767h130v-57h-201v881z" />
    <glyph glyph-name="backslash" unicode="\" horiz-adv-x="402" 
d="M61 720h67l235 -881h-66z" />
    <glyph glyph-name="bracketright" unicode="]" horiz-adv-x="306" 
d="M25 -104h130v767h-130v57h201v-881h-201v57z" />
    <glyph glyph-name="asciicircum" unicode="^" 
d="M247 456h51l209 -298h-76l-158 221l-158 -221h-77z" />
    <glyph glyph-name="underscore" unicode="_" 
d="M40 319h465v-64h-465v64z" />
    <glyph glyph-name="grave" unicode="`" horiz-adv-x="500" 
d="M149 666h109l92 -126h-66z" />
    <glyph glyph-name="a" unicode="a" horiz-adv-x="472" 
d="M193 51q77 0 128 69v108h-25q-174 0 -174 -109q0 -31 20 -49.5t51 -18.5zM181 -12q-60 0 -98.5 35t-38.5 94q0 165 277 165v45q0 100 -96 100q-68 0 -125 -52l-39 51q70 66 169 66q164 0 164 -159v-224q0 -71 11 -109h-73q-3 16 -7 58q-56 -70 -144 -70z" />
    <glyph glyph-name="b" unicode="b" horiz-adv-x="519" 
d="M238 51q77 0 122 57q41 53 41 132q0 80 -31 128q-37 58 -112 58q-62 0 -106 -47v-313q30 -15 86 -15zM237 -12q-99 0 -158 37v695h73v-278q48 50 120 50q103 0 158 -76q49 -68 49 -174q0 -108 -67.5 -181t-174.5 -73z" />
    <glyph glyph-name="c" unicode="c" horiz-adv-x="440" 
d="M258 -12q-102 0 -163 77q-55 70 -55 175q0 106 56 176q61 76 165 76q85 0 147 -48l-35 -55q-54 40 -113 40q-74 0 -111 -59q-31 -49 -31 -128t32 -130q38 -61 112 -61q67 0 117 40l30 -55q-56 -48 -151 -48z" />
    <glyph glyph-name="d" unicode="d" horiz-adv-x="523" 
d="M253 54q74 0 121 66v265q-48 44 -115 44q-72 0 -110 -61q-31 -50 -31 -127q0 -187 135 -187zM238 -12q-99 0 -152 79q-46 68 -46 172q0 103 53 174q59 79 159 79q75 0 122 -42v270h73v-622q0 -52 12 -98h-73q-7 29 -9 55q-54 -67 -139 -67z" />
    <glyph glyph-name="e" unicode="e" horiz-adv-x="490" 
d="M370 300q-5 129 -116 129q-109 0 -132 -129h248zM267 -12q-109 0 -170 74q-57 69 -57 181q0 102 56 173q60 76 160 76q93 0 143 -63q46 -57 46 -153q0 -16 -2 -34h-325q2 -83 34 -132q39 -59 117 -59q64 0 133 43l30 -57q-74 -49 -165 -49z" />
    <glyph glyph-name="f" unicode="f" horiz-adv-x="317" 
d="M100 422h-80v58h80v71q0 84 46 132.5t129 48.5q53 0 80 -13l-19 -63q-31 12 -63 12q-72 0 -91 -65q-9 -28 -9 -123h122v-58h-122v-422h-73v422z" />
    <glyph glyph-name="g" unicode="g" horiz-adv-x="505" 
d="M242 -183q59 0 105 25q55 31 55 86q0 51 -47 67q-21 7 -90 10q-46 2 -77 6q-71 -41 -71 -104q0 -90 125 -90zM243 216q50 0 80 30t30 80t-30 80t-80 30t-78.5 -30t-28.5 -80t28.5 -80t78.5 -30zM235 -237q-79 0 -129 28q-63 35 -63 108q0 81 93 125v2q-49 26 -49 76
q0 51 54 82v2q-80 44 -80 140q0 77 53 123q51 43 129 43q16 0 44.5 -6t29.5 -6h156v-58h-81q36 -44 36 -96q0 -76 -54 -121t-131 -45q-25 0 -50 6q-35 -17 -35 -47q0 -39 83 -46q128 -10 153 -19q83 -27 83 -116q0 -84 -82 -133q-70 -42 -160 -42z" />
    <glyph glyph-name="h" unicode="h" horiz-adv-x="527" 
d="M79 720h73v-309q65 81 156 81q68 0 104.5 -40.5t36.5 -109.5v-342h-73v328q0 98 -85 98q-69 0 -139 -88v-338h-73v720z" />
    <glyph glyph-name="i" unicode="i" horiz-adv-x="250" 
d="M88 480h74v-480h-74v480zM125 570q-23 0 -38.5 15.5t-15.5 38.5t15.5 38.5t38.5 15.5t38.5 -15.5t15.5 -38.5t-15.5 -38.5t-38.5 -15.5z" />
    <glyph glyph-name="j" unicode="j" horiz-adv-x="239" 
d="M119 570q-23 0 -38.5 15.5t-15.5 38.5t15.5 38.5t38.5 15.5t38.5 -15.5t15.5 -38.5t-15.5 -38.5t-38.5 -15.5zM20 -230q-41 0 -52 7l12 61q10 -5 34 -5q70 0 70 116v531h73v-548q0 -162 -137 -162z" />
    <glyph glyph-name="k" unicode="k" horiz-adv-x="468" 
d="M79 720h73v-720h-73v720zM157 268l198 212h87l-200 -212l209 -268h-89z" />
    <glyph glyph-name="l" unicode="l" horiz-adv-x="241" 
d="M84 720h73v-720h-73v720z" />
    <glyph glyph-name="m" unicode="m" horiz-adv-x="793" 
d="M82 480h73v-68q64 80 147 80q94 0 123 -81q76 81 155 81q135 0 135 -150v-342h-73v328q0 98 -79 98q-67 0 -128 -75v-351h-73v328q0 98 -77 98q-39 0 -75 -28q-21 -17 -55 -59v-339h-73v480z" />
    <glyph glyph-name="n" unicode="n" horiz-adv-x="530" 
d="M82 480h73v-69q63 81 156 81q68 0 104.5 -40.5t36.5 -109.5v-342h-73v328q0 98 -85 98q-74 0 -139 -88v-338h-73v480z" />
    <glyph glyph-name="o" unicode="o" horiz-adv-x="528" 
d="M263 51q74 0 113 59q34 51 34 129t-36 130q-41 60 -116 60q-74 0 -110 -60q-30 -49 -30 -128t32 -130q38 -60 113 -60zM262 -12q-104 0 -165 75q-57 70 -57 176q0 107 55 177q60 76 164 76t168 -75q61 -71 61 -176q0 -106 -59 -177q-63 -76 -167 -76z" />
    <glyph glyph-name="p" unicode="p" horiz-adv-x="529" 
d="M270 51q72 0 110 61q31 50 31 127t-27 126q-34 61 -105 61q-76 0 -124 -67v-264q50 -44 115 -44zM82 480h73v-52q53 64 139 64q99 0 151 -79q44 -68 44 -172t-53 -174q-58 -79 -159 -79q-73 0 -122 42v-249h-73v699z" />
    <glyph glyph-name="q" unicode="q" horiz-adv-x="522" 
d="M261 54q58 0 106 47v311q-40 17 -86 17q-77 0 -122 -57q-41 -53 -41 -132q0 -80 31 -128q37 -58 112 -58zM367 38q-47 -50 -120 -50q-102 0 -157 77q-50 68 -50 173q0 107 68 180.5t174 73.5q99 0 158 -37v-672h-73v255z" />
    <glyph glyph-name="r" unicode="r" horiz-adv-x="345" 
d="M82 480h73v-75q51 87 128 87q24 0 50 -10l-18 -70q-16 8 -42 8q-67 0 -107 -76q-11 -20 -11 -22v-322h-73v480z" />
    <glyph glyph-name="s" unicode="s" horiz-adv-x="408" 
d="M193 -13q-86 0 -152 46l32 56q55 -39 119 -39q98 0 98 69q0 43 -62 73l-114 56q-62 42 -62 112q0 63 46 99q41 33 106 33q73 0 142 -46l-36 -53q-47 36 -107 36q-80 0 -80 -66q0 -42 62 -73q58 -28 117 -56q62 -41 62 -105q0 -71 -52 -109q-45 -33 -119 -33z" />
    <glyph glyph-name="t" unicode="t" horiz-adv-x="348" 
d="M224 -12q-120 0 -120 127v307h-79v58h79v137h73v-137h121v-58h-121v-300q0 -71 56 -71q39 0 65 21l27 -55q-46 -29 -101 -29z" />
    <glyph glyph-name="u" unicode="u" horiz-adv-x="528" 
d="M218 -12q-69 0 -105.5 40t-36.5 110v342h73v-328q0 -98 86 -98q68 0 138 88v338h73v-379q0 -59 9 -101h-74q-4 19 -7 71q-60 -83 -156 -83z" />
    <glyph glyph-name="v" unicode="v" horiz-adv-x="462" 
d="M16 480h80l137 -384h2l134 384h75l-177 -480h-68z" />
    <glyph glyph-name="w" unicode="w" horiz-adv-x="698" 
d="M17 480h80l102 -363h2l113 363h71l113 -364h2l103 364h74l-144 -480h-66l-119 373h-2l-120 -373h-66z" />
    <glyph glyph-name="x" unicode="x" horiz-adv-x="462" 
d="M188 251l-156 229h83q38 -58 116 -172l109 172h77l-150 -224l174 -256h-83l-135 199l-125 -199h-76z" />
    <glyph glyph-name="y" unicode="y" horiz-adv-x="469" 
d="M57 -232q-28 0 -46 5l10 61q15 -3 37 -3q64 0 99 58q9 16 45 114l-181 477h82l137 -383h2l133 383h78l-204 -544q-32 -84 -67 -120q-46 -48 -125 -48z" />
    <glyph glyph-name="z" unicode="z" horiz-adv-x="423" 
d="M42 46l244 375h-230v59h319v-49l-245 -372h249v-59h-337v46z" />
    <glyph glyph-name="braceleft" unicode="{" horiz-adv-x="358" 
d="M247 -161q-48 0 -78 30t-30 78v201q0 50 -30 79t-81 30v56q51 1 81 29.5t30 79.5v191q0 48 29.5 77.5t77.5 29.5h87v-57q-5 0 -21 1t-26 1q-53 0 -64.5 -22t-11.5 -59v-175q0 -96 -100 -121v-2q100 -30 100 -128v-187q0 -38 10.5 -56t53.5 -20q-31 1 59 1v-57h-86z" />
    <glyph glyph-name="bar" unicode="|" horiz-adv-x="284" 
d="M112 750h60v-1000h-60v1000z" />
    <glyph glyph-name="braceright" unicode="}" horiz-adv-x="358" 
d="M25 -104q5 0 21 -1t26 -1q53 0 64.5 22t11.5 59v186q0 96 100 121v2q-100 30 -100 128v176q0 38 -10.5 56t-53.5 20q31 -1 -59 -1v57h86q44 0 74 -26q37 -32 37 -119q0 -19 -2.5 -60t-2.5 -60q0 -67 20 -99q27 -42 93 -43v-56q-51 -1 -81 -29.5t-30 -79.5v-202
q0 -48 -29.5 -77.5t-77.5 -29.5h-87v57z" />
    <glyph glyph-name="asciitilde" unicode="~" 
d="M377 246q-52 0 -119.5 35t-99.5 35q-44 0 -89 -40l-36 45q68 59 131 59q41 0 110 -34.5t109 -34.5q47 0 95 41l34 -45q-63 -61 -135 -61z" />
    <glyph glyph-name="exclamdown" unicode="&#xa1;" horiz-adv-x="275" 
d="M109 285h58l16 -467h-90zM138 379q-23 0 -40 16.5t-17 39.5q0 24 16.5 40.5t40.5 16.5t40.5 -16.5t16.5 -40.5q0 -23 -17 -39.5t-40 -16.5z" />
    <glyph glyph-name="cent" unicode="&#xa2;" horiz-adv-x="440" 
d="M213 -8q-85 18 -131 91q-42 66 -42 157q0 92 42 157q46 71 131 90v106h71v-102q69 -6 124 -47l-35 -55q-54 40 -113 40q-74 0 -111 -59q-31 -49 -31 -128t32 -130q38 -61 112 -61q67 0 117 40l30 -55q-47 -39 -125 -47v-112h-71v115z" />
    <glyph glyph-name="sterling" unicode="&#xa3;" horiz-adv-x="468" 
d="M61 356h88q-12 77 -12 138q0 87 46.5 135.5t133.5 48.5q64 0 120 -34l-33 -56q-40 26 -97 26q-94 0 -94 -122q0 -34 11 -136h151v-59h-145q3 -27 3 -49q0 -125 -75 -186h258v-62h-362v49q50 28 78.5 82t28.5 114q0 24 -4 52h-96v59z" />
    <glyph glyph-name="yen" unicode="&#xa5;" horiz-adv-x="520" 
d="M226 95h-161v59h161v71h-161v59h143l-206 382h87l177 -340h2l178 340h75l-202 -382h144v-59h-161v-71h161v-59h-161v-95h-76v95z" />
    <glyph glyph-name="brokenbar" unicode="&#xa6;" horiz-adv-x="177" 
d="M57 750h60v-368h-60v368zM57 128h60v-378h-60v378z" />
    <glyph glyph-name="section" unicode="&#xa7;" horiz-adv-x="468" 
d="M293 141q34 32 34 75q0 44 -61 118q-47 53 -94 105q-32 -23 -32 -75q0 -41 61 -117zM205 -152q-64 0 -115 33l32 56q44 -25 83 -25q85 0 85 83q0 44 -58 111l-106 120q-58 75 -58 138q0 75 68 124q-32 45 -32 93q0 65 44.5 108t109.5 43q71 0 117 -35l-35 -56
q-42 28 -82 28q-36 0 -59.5 -23.5t-23.5 -59.5q0 -44 58 -111q53 -61 107 -121q58 -75 58 -138q0 -66 -67 -126q30 -50 30 -90q0 -70 -43 -111t-113 -41z" />
    <glyph glyph-name="dieresis" unicode="&#xa8;" horiz-adv-x="500" 
d="M343 538q-23 0 -38 15.5t-15 38.5q0 22 15.5 37.5t37.5 15.5q23 0 38.5 -15t15.5 -38t-15.5 -38.5t-38.5 -15.5zM156 538q-23 0 -38 15.5t-15 38.5q0 22 15.5 37.5t37.5 15.5q23 0 38.5 -15t15.5 -38t-15.5 -38.5t-38.5 -15.5z" />
    <glyph glyph-name="copyright" unicode="&#xa9;" horiz-adv-x="953" 
d="M476 -26q165 0 272.5 109.5t107.5 275.5q0 165 -107.5 275t-272.5 110t-272 -110t-107 -275q0 -166 107 -275.5t272 -109.5zM476 -89q-184 0 -315 132t-131 316t131 316t315 132q185 0 316 -131.5t131 -316.5t-131 -316.5t-316 -131.5zM486 81q-117 0 -196 80.5
t-79 197.5q0 116 79.5 197t195.5 81q94 0 169 -60l-46 -57q-54 47 -125 47q-84 0 -135.5 -60.5t-51.5 -145.5t53 -146q56 -64 140 -64q75 0 139 53l38 -61q-78 -62 -181 -62z" />
    <glyph glyph-name="ordfeminine" unicode="&#xaa;" horiz-adv-x="361" 
d="M147 367q40 0 84 44v73q-134 0 -134 -71q0 -46 50 -46zM139 315q-43 0 -74 26.5t-31 69.5q0 119 197 119v27q0 68 -65 68q-41 0 -87 -35l-33 42q54 46 123 46q122 0 122 -116q0 -4 -2 -75q-1 -52 1 -85q2 -48 10 -79h-62q-3 17 -5 35q-40 -43 -94 -43z" />
    <glyph glyph-name="guillemotleft" unicode="&#xab;" horiz-adv-x="476" 
d="M223 245l133 190h77l-132 -190l132 -189h-77zM45 245l133 190h77l-132 -190l132 -189h-77z" />
    <glyph glyph-name="logicalnot" unicode="&#xac;" horiz-adv-x="588" 
d="M470 237h-430v64h498v-268h-68v204z" />
    <glyph glyph-name="minus" unicode="&#xad;" 
d="M40 345h465v-61h-465v61z" />
    <glyph glyph-name="minus" unicode="&#x2212;" 
d="M40 345h465v-61h-465v61z" />
    <glyph glyph-name="registered" unicode="&#xae;" horiz-adv-x="508" 
d="M241 553q31 0 42 4q19 8 19 33q0 22 -14 29q-9 4 -36 4h-40v-70h29zM254 336q83 0 136.5 55t53.5 138t-54 138t-136 55t-136 -55t-54 -138t53.5 -138t136.5 -55zM254 305q-92 0 -158 66t-66 158t66 158t158 66t158 -66t66 -158t-66 -158t-158 -66zM163 666h108
q36 0 59.5 -20.5t23.5 -55.5q0 -32 -23 -53.5t-54 -21.5q12 0 32 -35l48 -85h-57l-51 91q-15 26 -37 26v-117h-49v271z" />
    <glyph glyph-name="macron" unicode="&#xaf;" horiz-adv-x="500" 
d="M114 635h271v-61h-271v61z" />
    <glyph glyph-name="macron" unicode="&#x2c9;" horiz-adv-x="500" 
d="M114 635h271v-61h-271v61z" />
    <glyph glyph-name="degree" unicode="&#xb0;" horiz-adv-x="393" 
d="M196 387q50 0 75 45q19 33 19 74q0 42 -21 76q-27 44 -77 44t-73 -46q-17 -32 -17 -77q0 -40 19 -72q25 -44 75 -44zM195 335q-74 0 -119 57q-41 50 -41 114q0 68 39 117q44 56 119 56t122 -52q43 -49 43 -119q0 -65 -42 -116q-47 -57 -121 -57z" />
    <glyph glyph-name="plusminus" unicode="&#xb1;" 
d="M40 61h465v-61h-465v61zM40 345h202v202h61v-202h202v-61h-202v-202h-61v202h-202v61z" />
    <glyph glyph-name="twosuperior" unicode="&#xb2;" horiz-adv-x="335" 
d="M34 371q167 130 167 201q0 50 -56 50q-42 0 -79 -32l-34 39q53 43 123 43q113 0 113 -93q0 -79 -140 -193q6 0 19 1h18h121v-50h-252v34z" />
    <glyph glyph-name="threesuperior" unicode="&#xb3;" horiz-adv-x="306" 
d="M95 331q-45 0 -69 10l13 49q24 -9 53 -9q96 0 96 54q0 52 -111 54v43q100 2 100 54q0 36 -55 36q-36 0 -70 -27l-28 39q41 38 112 38q106 0 106 -75q0 -59 -70 -78v-1q36 -3 59 -25t23 -57q0 -105 -159 -105z" />
    <glyph glyph-name="acute" unicode="&#xb4;" horiz-adv-x="500" 
d="M241 666h109l-135 -126h-66z" />
    <glyph glyph-name="mu" unicode="&#xb5;" horiz-adv-x="526" 
d="M76 480h73v-336q0 -90 73 -90q77 0 151 87v339h73v-384q0 -54 7 -96h-73q-7 28 -7 69q-73 -81 -158 -81q-39 0 -67 17h-2q3 -27 3 -73v-149h-73v697z" />
    <glyph glyph-name="mu" unicode="&#x3bc;" horiz-adv-x="526" 
d="M76 480h73v-336q0 -90 73 -90q77 0 151 87v339h73v-384q0 -54 7 -96h-73q-7 28 -7 69q-73 -81 -158 -81q-39 0 -67 17h-2q3 -27 3 -73v-149h-73v697z" />
    <glyph glyph-name="paragraph" unicode="&#xb6;" horiz-adv-x="644" 
d="M260 274q-85 0 -140 55t-55 140t55 141t140 56h319v-63h-80v-780h-67v780h-104v-780h-68v451z" />
    <glyph glyph-name="periodcentered" unicode="&#xb7;" horiz-adv-x="220" 
d="M110 230q-26 0 -43.5 17.5t-17.5 43.5t17.5 43t43.5 17t43.5 -17t17.5 -43t-17.5 -43.5t-43.5 -17.5z" />
    <glyph glyph-name="periodcentered" unicode="&#x2219;" horiz-adv-x="220" 
d="M110 230q-26 0 -43.5 17.5t-17.5 43.5t17.5 43t43.5 17t43.5 -17t17.5 -43t-17.5 -43.5t-43.5 -17.5z" />
    <glyph glyph-name="cedilla" unicode="&#xb8;" horiz-adv-x="500" 
d="M226 -219q-42 0 -66 12l12 42q19 -11 53 -11q50 0 50 39q0 41 -71 41l36 96h51l-25 -66q70 -11 70 -70q0 -42 -35 -64q-30 -19 -75 -19z" />
    <glyph glyph-name="onesuperior" unicode="&#xb9;" horiz-adv-x="256" 
d="M105 612l-72 -20l-15 49l102 25h47v-329h-62v275z" />
    <glyph glyph-name="ordmasculine" unicode="&#xba;" horiz-adv-x="393" 
d="M196 367q94 0 94 129q0 130 -98 130q-90 0 -90 -128q0 -131 94 -131zM195 315q-76 0 -119 54q-41 49 -41 127q0 79 39 129q42 54 119 54q76 0 122 -53q43 -51 43 -128q0 -78 -42 -129q-45 -54 -121 -54z" />
    <glyph glyph-name="guillemotright" unicode="&#xbb;" horiz-adv-x="476" 
d="M353 245l-132 190h76l134 -190l-134 -189h-76zM175 245l-132 190h76l134 -190l-134 -189h-76z" />
    <glyph glyph-name="onequarter" unicode="&#xbc;" horiz-adv-x="647" 
d="M412 116q14 2 106 2v129h-1zM517 69h-175v42l178 218h58v-211h55v-49h-55v-69h-61v69zM483 666h61l-417 -666h-61zM105 612l-72 -20l-15 49l102 25h47v-329h-62v275z" />
    <glyph glyph-name="onehalf" unicode="&#xbd;" horiz-adv-x="689" 
d="M388 34q167 130 167 201q0 50 -56 50q-42 0 -79 -32l-34 39q53 43 123 43q113 0 113 -93q0 -79 -140 -193q6 0 19 1h18h121v-50h-252v34zM483 666h61l-417 -666h-61zM105 612l-72 -20l-15 49l102 25h47v-329h-62v275z" />
    <glyph glyph-name="threequarters" unicode="&#xbe;" horiz-adv-x="697" 
d="M462 116q14 2 106 2v129h-1zM567 69h-175v42l178 218h58v-211h55v-49h-55v-69h-61v69zM533 666h61l-417 -666h-61zM95 331q-45 0 -69 10l13 49q24 -9 53 -9q96 0 96 54q0 52 -111 54v43q100 2 100 54q0 36 -55 36q-36 0 -70 -27l-28 39q41 38 112 38q106 0 106 -75
q0 -59 -70 -78v-1q36 -3 59 -25t23 -57q0 -105 -159 -105z" />
    <glyph glyph-name="questiondown" unicode="&#xbf;" horiz-adv-x="400" 
d="M260 379q-23 0 -40 16.5t-17 39.5q0 24 16.5 40.5t40.5 16.5t40.5 -16.5t16.5 -40.5q0 -23 -17 -39.5t-40 -16.5zM246 -194q-85 0 -138 41q-58 46 -58 129q0 65 36 108q21 26 73 59q46 29 56.5 46.5t11.5 50.5q-1 -24 -1 51h71v-63q0 -63 -44 -100q-40 -27 -81 -55
q-44 -35 -44 -93q0 -110 123 -110q40 0 82 21l27 -58q-54 -27 -114 -27z" />
    <glyph glyph-name="Agrave" unicode="&#xc0;" horiz-adv-x="627" 
d="M142 846h109l92 -126h-66zM276 666h76l256 -666h-85l-61 165h-303l-61 -165h-77zM437 231q-43 114 -125 343h-2q-11 -35 -126 -343h253z" />
    <glyph glyph-name="Aacute" unicode="&#xc1;" horiz-adv-x="627" 
d="M374 846h109l-135 -126h-66zM276 666h76l256 -666h-85l-61 165h-303l-61 -165h-77zM437 231q-43 114 -125 343h-2q-11 -35 -126 -343h253z" />
    <glyph glyph-name="Acircumflex" unicode="&#xc2;" horiz-adv-x="627" 
d="M285 874h54l121 -153h-69l-81 85l-79 -85h-69zM276 666h76l256 -666h-85l-61 165h-303l-61 -165h-77zM437 231q-43 114 -125 343h-2q-11 -35 -126 -343h253z" />
    <glyph glyph-name="Atilde" unicode="&#xc3;" horiz-adv-x="627" 
d="M360 723q-25 0 -56 19.5t-50 19.5q-17 0 -49 -32l-39 37q47 60 94 60q26 0 57.5 -19.5t48.5 -19.5q28 0 51 31l39 -38q-46 -58 -96 -58zM276 666h76l256 -666h-85l-61 165h-303l-61 -165h-77zM437 231q-43 114 -125 343h-2q-11 -35 -126 -343h253z" />
    <glyph glyph-name="Adieresis" unicode="&#xc4;" horiz-adv-x="627" 
d="M404 718q-23 0 -38 15.5t-15 38.5q0 22 15.5 37.5t37.5 15.5q23 0 38.5 -15t15.5 -38t-15.5 -38.5t-38.5 -15.5zM217 718q-23 0 -38 15.5t-15 38.5q0 22 15.5 37.5t37.5 15.5q23 0 38.5 -15t15.5 -38t-15.5 -38.5t-38.5 -15.5zM276 666h76l256 -666h-85l-61 165h-303
l-61 -165h-77zM437 231q-43 114 -125 343h-2q-11 -35 -126 -343h253z" />
    <glyph glyph-name="Aring" unicode="&#xc5;" horiz-adv-x="627" 
d="M311 743q22 0 36 16t14 39t-13.5 39t-36.5 16t-36.5 -16t-13.5 -39t14 -39t36 -16zM311 703q-38 0 -66.5 28.5t-28.5 66.5t28.5 66.5t66.5 28.5t66.5 -28.5t28.5 -66.5t-28.5 -66.5t-66.5 -28.5zM276 666h76l256 -666h-85l-61 165h-303l-61 -165h-77zM437 231
q-43 114 -125 343h-2q-11 -35 -126 -343h253z" />
    <glyph glyph-name="AE" unicode="&#xc6;" horiz-adv-x="835" 
d="M408 247v355l-199 -355h199zM368 666h402v-66h-284v-214h252v-66h-252v-254h291v-66h-369v182h-236l-102 -182h-85z" />
    <glyph glyph-name="Ccedilla" unicode="&#xc7;" horiz-adv-x="615" 
d="M314 -219q-42 0 -66 12l12 42q20 -11 53 -11q50 0 50 39q0 41 -71 41l33 88q-126 19 -201 118q-71 95 -71 225q0 146 91 244.5t235 98.5q107 0 187 -50l-39 -59q-64 44 -150 44q-113 0 -180 -83q-62 -77 -62 -193q0 -120 61 -198q68 -85 184 -85q97 0 163 57l36 -56
q-73 -67 -205 -67l-20 -54q70 -11 70 -70q0 -42 -36 -64q-30 -19 -74 -19z" />
    <glyph glyph-name="Egrave" unicode="&#xc8;" horiz-adv-x="523" 
d="M109 846h109l92 -126h-66zM96 666h362v-66h-284v-214h252v-66h-252v-254h291v-66h-369v666z" />
    <glyph glyph-name="Eacute" unicode="&#xc9;" horiz-adv-x="523" 
d="M331 846h109l-135 -126h-66zM96 666h362v-66h-284v-214h252v-66h-252v-254h291v-66h-369v666z" />
    <glyph glyph-name="Ecircumflex" unicode="&#xca;" horiz-adv-x="523" 
d="M247 874h54l121 -153h-69l-81 85l-79 -85h-69zM96 666h362v-66h-284v-214h252v-66h-252v-254h291v-66h-369v666z" />
    <glyph glyph-name="Edieresis" unicode="&#xcb;" horiz-adv-x="523" 
d="M366 718q-23 0 -38 15.5t-15 38.5q0 22 15.5 37.5t37.5 15.5q23 0 38.5 -15t15.5 -38t-15.5 -38.5t-38.5 -15.5zM179 718q-23 0 -38 15.5t-15 38.5q0 22 15.5 37.5t37.5 15.5q23 0 38.5 -15t15.5 -38t-15.5 -38.5t-38.5 -15.5zM96 666h362v-66h-284v-214h252v-66h-252
v-254h291v-66h-369v666z" />
    <glyph glyph-name="Igrave" unicode="&#xcc;" horiz-adv-x="282" 
d="M-27 846h109l92 -126h-66zM102 666h78v-666h-78v666z" />
    <glyph glyph-name="Iacute" unicode="&#xcd;" horiz-adv-x="282" 
d="M199 846h109l-135 -126h-66zM102 666h78v-666h-78v666z" />
    <glyph glyph-name="Icircumflex" unicode="&#xce;" horiz-adv-x="282" 
d="M115 874h54l121 -153h-69l-81 85l-79 -85h-69zM102 666h78v-666h-78v666z" />
    <glyph glyph-name="Idieresis" unicode="&#xcf;" horiz-adv-x="282" 
d="M234 718q-23 0 -38 15.5t-15 38.5q0 22 15.5 37.5t37.5 15.5q23 0 38.5 -15t15.5 -38t-15.5 -38.5t-38.5 -15.5zM47 718q-23 0 -38 15.5t-15 38.5q0 22 15.5 37.5t37.5 15.5q23 0 38.5 -15t15.5 -38t-15.5 -38.5t-38.5 -15.5zM102 666h78v-666h-78v666z" />
    <glyph glyph-name="Eth" unicode="&#xd0;" horiz-adv-x="657" 
d="M254 64q293 0 293 275q0 141 -80 205q-73 58 -218 58h-75v-230h111v-58h-111v-250h80zM96 314h-70v58h70v294h156q171 0 269 -75q108 -84 108 -250q0 -169 -109 -258q-101 -83 -273 -83h-151v314z" />
    <glyph glyph-name="Ntilde" unicode="&#xd1;" horiz-adv-x="711" 
d="M404 723q-25 0 -56 19.5t-50 19.5q-17 0 -49 -32l-39 37q47 60 94 60q26 0 57.5 -19.5t48.5 -19.5q28 0 51 31l39 -38q-46 -58 -96 -58zM94 666h77l314 -451q23 -33 62 -98h2q-4 40 -4 82v467h72v-666h-72l-329 475q-19 28 -52 86h-2q4 -40 4 -69v-492h-72v666z" />
    <glyph glyph-name="Ograve" unicode="&#xd2;" horiz-adv-x="760" 
d="M216 846h109l92 -126h-66zM379 53q115 0 183 84q63 77 63 195t-62 196q-68 85 -182 85q-115 0 -183 -84q-63 -78 -63 -195q0 -118 62 -196q68 -85 182 -85zM381 -12q-145 0 -238 100q-90 97 -90 244t90.5 246.5t235.5 99.5t238 -100q90 -97 90 -244t-89 -245
q-92 -101 -237 -101z" />
    <glyph glyph-name="Oacute" unicode="&#xd3;" horiz-adv-x="760" 
d="M438 846h109l-135 -126h-66zM379 53q115 0 183 84q63 77 63 195t-62 196q-68 85 -182 85q-115 0 -183 -84q-63 -78 -63 -195q0 -118 62 -196q68 -85 182 -85zM381 -12q-145 0 -238 100q-90 97 -90 244t90.5 246.5t235.5 99.5t238 -100q90 -97 90 -244t-89 -245
q-92 -101 -237 -101z" />
    <glyph glyph-name="Ocircumflex" unicode="&#xd4;" horiz-adv-x="760" 
d="M354 874h54l121 -153h-69l-81 85l-79 -85h-69zM379 53q115 0 183 84q63 77 63 195t-62 196q-68 85 -182 85q-115 0 -183 -84q-63 -78 -63 -195q0 -118 62 -196q68 -85 182 -85zM381 -12q-145 0 -238 100q-90 97 -90 244t90.5 246.5t235.5 99.5t238 -100q90 -97 90 -244
t-89 -245q-92 -101 -237 -101z" />
    <glyph glyph-name="Otilde" unicode="&#xd5;" horiz-adv-x="760" 
d="M429 723q-25 0 -56 19.5t-50 19.5q-17 0 -49 -32l-39 37q47 60 94 60q26 0 57.5 -19.5t48.5 -19.5q28 0 51 31l39 -38q-46 -58 -96 -58zM379 53q115 0 183 84q63 77 63 195t-62 196q-68 85 -182 85q-115 0 -183 -84q-63 -78 -63 -195q0 -118 62 -196q68 -85 182 -85z
M381 -12q-145 0 -238 100q-90 97 -90 244t90.5 246.5t235.5 99.5t238 -100q90 -97 90 -244t-89 -245q-92 -101 -237 -101z" />
    <glyph glyph-name="Odieresis" unicode="&#xd6;" horiz-adv-x="760" 
d="M473 718q-23 0 -38 15.5t-15 38.5q0 22 15.5 37.5t37.5 15.5q23 0 38.5 -15t15.5 -38t-15.5 -38.5t-38.5 -15.5zM286 718q-23 0 -38 15.5t-15 38.5q0 22 15.5 37.5t37.5 15.5q23 0 38.5 -15t15.5 -38t-15.5 -38.5t-38.5 -15.5zM379 53q115 0 183 84q63 77 63 195t-62 196
q-68 85 -182 85q-115 0 -183 -84q-63 -78 -63 -195q0 -118 62 -196q68 -85 182 -85zM381 -12q-145 0 -238 100q-90 97 -90 244t90.5 246.5t235.5 99.5t238 -100q90 -97 90 -244t-89 -245q-92 -101 -237 -101z" />
    <glyph glyph-name="Oslash" unicode="&#xd8;" horiz-adv-x="760" 
d="M522 568q-60 45 -141 45q-115 0 -183 -84q-63 -78 -63 -195q0 -143 83 -220zM258 84q53 -31 121 -31q115 0 183 84q63 77 63 195q0 122 -65 199zM668 688l-65 -96q104 -98 104 -258q0 -147 -89 -245q-92 -101 -237 -101q-87 0 -159 38l-62 -91l-43 31l60 90
q-124 99 -124 276q0 147 90.5 246.5t235.5 99.5q104 0 181 -52l64 95z" />
    <glyph glyph-name="Ugrave" unicode="&#xd9;" horiz-adv-x="690" 
d="M181 846h109l92 -126h-66zM348 -12q-258 0 -258 261v417h78v-407q0 -204 182 -204q87 0 132 51t45 139v421h73v-413q0 -127 -62 -194q-64 -71 -190 -71z" />
    <glyph glyph-name="Uacute" unicode="&#xda;" horiz-adv-x="690" 
d="M403 846h109l-135 -126h-66zM348 -12q-258 0 -258 261v417h78v-407q0 -204 182 -204q87 0 132 51t45 139v421h73v-413q0 -127 -62 -194q-64 -71 -190 -71z" />
    <glyph glyph-name="Ucircumflex" unicode="&#xdb;" horiz-adv-x="690" 
d="M319 874h54l121 -153h-69l-81 85l-79 -85h-69zM348 -12q-258 0 -258 261v417h78v-407q0 -204 182 -204q87 0 132 51t45 139v421h73v-413q0 -127 -62 -194q-64 -71 -190 -71z" />
    <glyph glyph-name="Udieresis" unicode="&#xdc;" horiz-adv-x="690" 
d="M438 718q-23 0 -38 15.5t-15 38.5q0 22 15.5 37.5t37.5 15.5q23 0 38.5 -15t15.5 -38t-15.5 -38.5t-38.5 -15.5zM251 718q-23 0 -38 15.5t-15 38.5q0 22 15.5 37.5t37.5 15.5q23 0 38.5 -15t15.5 -38t-15.5 -38.5t-38.5 -15.5zM348 -12q-258 0 -258 261v417h78v-407
q0 -204 182 -204q87 0 132 51t45 139v421h73v-413q0 -127 -62 -194q-64 -71 -190 -71z" />
    <glyph glyph-name="Yacute" unicode="&#xdd;" horiz-adv-x="555" 
d="M335 846h109l-135 -126h-66zM241 252l-223 414h87l178 -340h1l178 340h75l-218 -414v-252h-78v252z" />
    <glyph glyph-name="Thorn" unicode="&#xde;" horiz-adv-x="530" 
d="M252 220q165 0 165 136q0 129 -162 129h-81v-265h78zM96 666h78v-115h89q100 0 163 -45q71 -51 71 -147q0 -106 -72 -158q-64 -47 -173 -47h-78v-154h-78v666z" />
    <glyph glyph-name="germandbls" unicode="&#xdf;" horiz-adv-x="547" 
d="M338 -12q-76 0 -122 34l31 59q53 -30 94 -30q92 0 92 71q0 43 -52 77l-96 56q-52 37 -52 90q0 49 40 85l74 58q40 36 40 83q0 96 -104 96q-67 0 -98 -56q-26 -45 -26 -117v-494h-73v496q0 102 47 165q53 71 152 71q76 0 124 -39q52 -42 52 -116q0 -61 -41 -106
q-12 -13 -76 -61q-41 -30 -41 -57q0 -29 53 -61q88 -52 98 -61q53 -43 53 -101q0 -72 -50 -109q-44 -33 -119 -33z" />
    <glyph glyph-name="agrave" unicode="&#xe0;" horiz-adv-x="472" 
d="M66 666h109l92 -126h-66zM193 51q77 0 128 69v108h-25q-174 0 -174 -109q0 -31 20 -49.5t51 -18.5zM181 -12q-60 0 -98.5 35t-38.5 94q0 165 277 165v45q0 100 -96 100q-68 0 -125 -52l-39 51q70 66 169 66q164 0 164 -159v-224q0 -71 11 -109h-73q-3 16 -7 58
q-56 -70 -144 -70z" />
    <glyph glyph-name="aacute" unicode="&#xe1;" horiz-adv-x="472" 
d="M288 666h109l-135 -126h-66zM193 51q77 0 128 69v108h-25q-174 0 -174 -109q0 -31 20 -49.5t51 -18.5zM181 -12q-60 0 -98.5 35t-38.5 94q0 165 277 165v45q0 100 -96 100q-68 0 -125 -52l-39 51q70 66 169 66q164 0 164 -159v-224q0 -71 11 -109h-73q-3 16 -7 58
q-56 -70 -144 -70z" />
    <glyph glyph-name="acircumflex" unicode="&#xe2;" horiz-adv-x="472" 
d="M204 694h54l121 -153h-69l-81 85l-79 -85h-69zM193 51q77 0 128 69v108h-25q-174 0 -174 -109q0 -31 20 -49.5t51 -18.5zM181 -12q-60 0 -98.5 35t-38.5 94q0 165 277 165v45q0 100 -96 100q-68 0 -125 -52l-39 51q70 66 169 66q164 0 164 -159v-224q0 -71 11 -109h-73
q-3 16 -7 58q-56 -70 -144 -70z" />
    <glyph glyph-name="atilde" unicode="&#xe3;" horiz-adv-x="472" 
d="M279 543q-25 0 -56 19.5t-50 19.5q-17 0 -49 -32l-39 37q47 60 94 60q26 0 57.5 -19.5t48.5 -19.5q28 0 51 31l39 -38q-46 -58 -96 -58zM193 51q77 0 128 69v108h-25q-174 0 -174 -109q0 -31 20 -49.5t51 -18.5zM181 -12q-60 0 -98.5 35t-38.5 94q0 165 277 165v45
q0 100 -96 100q-68 0 -125 -52l-39 51q70 66 169 66q164 0 164 -159v-224q0 -71 11 -109h-73q-3 16 -7 58q-56 -70 -144 -70z" />
    <glyph glyph-name="adieresis" unicode="&#xe4;" horiz-adv-x="472" 
d="M323 538q-23 0 -38 15.5t-15 38.5q0 22 15.5 37.5t37.5 15.5q23 0 38.5 -15t15.5 -38t-15.5 -38.5t-38.5 -15.5zM136 538q-23 0 -38 15.5t-15 38.5q0 22 15.5 37.5t37.5 15.5q23 0 38.5 -15t15.5 -38t-15.5 -38.5t-38.5 -15.5zM193 51q77 0 128 69v108h-25
q-174 0 -174 -109q0 -31 20 -49.5t51 -18.5zM181 -12q-60 0 -98.5 35t-38.5 94q0 165 277 165v45q0 100 -96 100q-68 0 -125 -52l-39 51q70 66 169 66q164 0 164 -159v-224q0 -71 11 -109h-73q-3 16 -7 58q-56 -70 -144 -70z" />
    <glyph glyph-name="aring" unicode="&#xe5;" horiz-adv-x="472" 
d="M230 585q22 0 36 16t14 39t-13.5 39t-36.5 16t-36.5 -16t-13.5 -39t14 -39t36 -16zM230 545q-38 0 -66.5 28.5t-28.5 66.5t28.5 66.5t66.5 28.5t66.5 -28.5t28.5 -66.5t-28.5 -66.5t-66.5 -28.5zM193 51q77 0 128 69v108h-25q-174 0 -174 -109q0 -31 20 -49.5t51 -18.5z
M181 -12q-60 0 -98.5 35t-38.5 94q0 165 277 165v45q0 100 -96 100q-68 0 -125 -52l-39 51q70 66 169 66q164 0 164 -159v-224q0 -71 11 -109h-73q-3 16 -7 58q-56 -70 -144 -70z" />
    <glyph glyph-name="ae" unicode="&#xe6;" horiz-adv-x="770" 
d="M650 300q-5 129 -116 129q-109 0 -132 -129h248zM193 51q90 0 145 85q-15 45 -18 92h-24q-174 0 -174 -109q0 -31 20 -49.5t51 -18.5zM181 -12q-60 0 -98.5 35t-38.5 94q0 165 278 165v45q0 100 -97 100q-64 0 -125 -52l-39 51q74 66 169 66q110 0 146 -78q63 78 160 78
q92 0 142 -64q47 -58 47 -152q0 -16 -2 -34h-325q2 -83 34 -132q39 -59 117 -59q64 0 133 43l30 -57q-74 -49 -165 -49q-120 0 -183 96q-76 -96 -183 -96z" />
    <glyph glyph-name="ccedilla" unicode="&#xe7;" horiz-adv-x="440" 
d="M199 -219q-42 0 -66 12l12 42q19 -11 53 -11q50 0 50 39q0 41 -71 41l33 89q-83 18 -129 91q-41 67 -41 156q0 106 56 176q61 76 165 76q85 0 147 -48l-35 -55q-54 40 -113 40q-74 0 -111 -59q-31 -49 -31 -128t32 -130q38 -61 112 -61q67 0 117 40l30 -55
q-56 -48 -150 -48l-20 -54q70 -11 70 -70q0 -42 -36 -64q-30 -19 -74 -19z" />
    <glyph glyph-name="egrave" unicode="&#xe8;" horiz-adv-x="490" 
d="M90 666h109l92 -126h-66zM370 300q-5 129 -116 129q-109 0 -132 -129h248zM267 -12q-109 0 -170 74q-57 69 -57 181q0 102 56 173q60 76 160 76q93 0 143 -63q46 -57 46 -153q0 -16 -2 -34h-325q2 -83 34 -132q39 -59 117 -59q64 0 133 43l30 -57q-74 -49 -165 -49z" />
    <glyph glyph-name="eacute" unicode="&#xe9;" horiz-adv-x="490" 
d="M312 666h109l-135 -126h-66zM370 300q-5 129 -116 129q-109 0 -132 -129h248zM267 -12q-109 0 -170 74q-57 69 -57 181q0 102 56 173q60 76 160 76q93 0 143 -63q46 -57 46 -153q0 -16 -2 -34h-325q2 -83 34 -132q39 -59 117 -59q64 0 133 43l30 -57q-74 -49 -165 -49z
" />
    <glyph glyph-name="ecircumflex" unicode="&#xea;" horiz-adv-x="490" 
d="M228 694h54l121 -153h-69l-81 85l-79 -85h-69zM370 300q-5 129 -116 129q-109 0 -132 -129h248zM267 -12q-109 0 -170 74q-57 69 -57 181q0 102 56 173q60 76 160 76q93 0 143 -63q46 -57 46 -153q0 -16 -2 -34h-325q2 -83 34 -132q39 -59 117 -59q64 0 133 43l30 -57
q-74 -49 -165 -49z" />
    <glyph glyph-name="edieresis" unicode="&#xeb;" horiz-adv-x="490" 
d="M347 538q-23 0 -38 15.5t-15 38.5q0 22 15.5 37.5t37.5 15.5q23 0 38.5 -15t15.5 -38t-15.5 -38.5t-38.5 -15.5zM160 538q-23 0 -38 15.5t-15 38.5q0 22 15.5 37.5t37.5 15.5q23 0 38.5 -15t15.5 -38t-15.5 -38.5t-38.5 -15.5zM370 300q-5 129 -116 129q-109 0 -132 -129
h248zM267 -12q-109 0 -170 74q-57 69 -57 181q0 102 56 173q60 76 160 76q93 0 143 -63q46 -57 46 -153q0 -16 -2 -34h-325q2 -83 34 -132q39 -59 117 -59q64 0 133 43l30 -57q-74 -49 -165 -49z" />
    <glyph glyph-name="igrave" unicode="&#xec;" horiz-adv-x="250" 
d="M-39 666h109l92 -126h-66zM88 480h74v-480h-74v480z" />
    <glyph glyph-name="iacute" unicode="&#xed;" horiz-adv-x="250" 
d="M183 666h109l-135 -126h-66zM88 480h74v-480h-74v480z" />
    <glyph glyph-name="icircumflex" unicode="&#xee;" horiz-adv-x="250" 
d="M88 480h74v-480h-74v480zM99 694h54l121 -153h-69l-81 85l-79 -85h-69z" />
    <glyph glyph-name="idieresis" unicode="&#xef;" horiz-adv-x="250" 
d="M218 538q-23 0 -38 15.5t-15 38.5q0 22 15.5 37.5t37.5 15.5q23 0 38.5 -15t15.5 -38t-15.5 -38.5t-38.5 -15.5zM31 538q-23 0 -38 15.5t-15 38.5q0 22 15.5 37.5t37.5 15.5q23 0 38.5 -15t15.5 -38t-15.5 -38.5t-38.5 -15.5zM88 480h74v-480h-74v480z" />
    <glyph glyph-name="eth" unicode="&#xf0;" horiz-adv-x="538" 
d="M264 51q155 0 155 272q-55 99 -167 99q-70 0 -105 -58q-29 -49 -29 -123q0 -79 32 -130q39 -60 114 -60zM261 -12q-102 0 -164 76q-57 71 -57 175q0 105 55 173q59 73 162 73q100 0 152 -69q-25 130 -112 194l-79 -67l-38 44l64 54q-66 30 -156 30l15 61q113 0 197 -43
l72 61l38 -44l-59 -50q145 -112 145 -356q0 -127 -53 -211q-63 -101 -182 -101z" />
    <glyph glyph-name="ntilde" unicode="&#xf1;" horiz-adv-x="530" 
d="M306 543q-25 0 -56 19.5t-50 19.5q-17 0 -49 -32l-39 37q47 60 94 60q26 0 57.5 -19.5t48.5 -19.5q28 0 51 31l39 -38q-46 -58 -96 -58zM82 480h73v-69q63 81 156 81q68 0 104.5 -40.5t36.5 -109.5v-342h-73v328q0 98 -85 98q-74 0 -139 -88v-338h-73v480z" />
    <glyph glyph-name="ograve" unicode="&#xf2;" horiz-adv-x="528" 
d="M100 666h109l92 -126h-66zM263 51q74 0 113 59q34 51 34 129t-36 130q-41 60 -116 60q-74 0 -110 -60q-30 -49 -30 -128t32 -130q38 -60 113 -60zM262 -12q-104 0 -165 75q-57 70 -57 176q0 107 55 177q60 76 164 76t168 -75q61 -71 61 -176q0 -106 -59 -177
q-63 -76 -167 -76z" />
    <glyph glyph-name="oacute" unicode="&#xf3;" horiz-adv-x="528" 
d="M322 666h109l-135 -126h-66zM263 51q74 0 113 59q34 51 34 129t-36 130q-41 60 -116 60q-74 0 -110 -60q-30 -49 -30 -128t32 -130q38 -60 113 -60zM262 -12q-104 0 -165 75q-57 70 -57 176q0 107 55 177q60 76 164 76t168 -75q61 -71 61 -176q0 -106 -59 -177
q-63 -76 -167 -76z" />
    <glyph glyph-name="ocircumflex" unicode="&#xf4;" horiz-adv-x="528" 
d="M238 694h54l121 -153h-69l-81 85l-79 -85h-69zM263 51q74 0 113 59q34 51 34 129t-36 130q-41 60 -116 60q-74 0 -110 -60q-30 -49 -30 -128t32 -130q38 -60 113 -60zM262 -12q-104 0 -165 75q-57 70 -57 176q0 107 55 177q60 76 164 76t168 -75q61 -71 61 -176
q0 -106 -59 -177q-63 -76 -167 -76z" />
    <glyph glyph-name="otilde" unicode="&#xf5;" horiz-adv-x="528" 
d="M313 543q-25 0 -56 19.5t-50 19.5q-17 0 -49 -32l-39 37q47 60 94 60q26 0 57.5 -19.5t48.5 -19.5q28 0 51 31l39 -38q-46 -58 -96 -58zM263 51q74 0 113 59q34 51 34 129t-36 130q-41 60 -116 60q-74 0 -110 -60q-30 -49 -30 -128t32 -130q38 -60 113 -60zM262 -12
q-104 0 -165 75q-57 70 -57 176q0 107 55 177q60 76 164 76t168 -75q61 -71 61 -176q0 -106 -59 -177q-63 -76 -167 -76z" />
    <glyph glyph-name="odieresis" unicode="&#xf6;" horiz-adv-x="528" 
d="M357 538q-23 0 -38 15.5t-15 38.5q0 22 15.5 37.5t37.5 15.5q23 0 38.5 -15t15.5 -38t-15.5 -38.5t-38.5 -15.5zM170 538q-23 0 -38 15.5t-15 38.5q0 22 15.5 37.5t37.5 15.5q23 0 38.5 -15t15.5 -38t-15.5 -38.5t-38.5 -15.5zM263 51q74 0 113 59q34 51 34 129t-36 130
q-41 60 -116 60q-74 0 -110 -60q-30 -49 -30 -128t32 -130q38 -60 113 -60zM262 -12q-104 0 -165 75q-57 70 -57 176q0 107 55 177q60 76 164 76t168 -75q61 -71 61 -176q0 -106 -59 -177q-63 -76 -167 -76z" />
    <glyph glyph-name="divide" unicode="&#xf7;" 
d="M273 429q-23 0 -39.5 16t-16.5 39t16.5 38.5t39.5 15.5t39 -15.5t16 -38.5t-16 -39t-39 -16zM273 92q-23 0 -39.5 15.5t-16.5 38.5t16.5 38.5t39.5 15.5t39 -15.5t16 -38.5t-16 -38.5t-39 -15.5zM40 345h465v-61h-465v61z" />
    <glyph glyph-name="oslash" unicode="&#xf8;" horiz-adv-x="528" 
d="M116 241q0 -76 28 -126l193 293q-36 23 -79 23q-74 0 -111 -61q-31 -50 -31 -129zM263 48q74 0 115 61q34 52 34 130q0 84 -39 135l-198 -296q36 -30 88 -30zM49 -28l55 82q-64 72 -64 185q0 107 55 177q60 76 164 76q66 0 114 -29l58 88l42 -29l-60 -90q75 -75 75 -191
q0 -106 -59 -177q-63 -76 -167 -76q-74 0 -123 35l-51 -78z" />
    <glyph glyph-name="ugrave" unicode="&#xf9;" horiz-adv-x="528" 
d="M101 666h109l92 -126h-66zM218 -12q-69 0 -105.5 40t-36.5 110v342h73v-328q0 -98 86 -98q68 0 138 88v338h73v-379q0 -59 9 -101h-74q-4 19 -7 71q-60 -83 -156 -83z" />
    <glyph glyph-name="uacute" unicode="&#xfa;" horiz-adv-x="528" 
d="M323 666h109l-135 -126h-66zM218 -12q-69 0 -105.5 40t-36.5 110v342h73v-328q0 -98 86 -98q68 0 138 88v338h73v-379q0 -59 9 -101h-74q-4 19 -7 71q-60 -83 -156 -83z" />
    <glyph glyph-name="ucircumflex" unicode="&#xfb;" horiz-adv-x="528" 
d="M239 694h54l121 -153h-69l-81 85l-79 -85h-69zM218 -12q-69 0 -105.5 40t-36.5 110v342h73v-328q0 -98 86 -98q68 0 138 88v338h73v-379q0 -59 9 -101h-74q-4 19 -7 71q-60 -83 -156 -83z" />
    <glyph glyph-name="udieresis" unicode="&#xfc;" horiz-adv-x="528" 
d="M358 538q-23 0 -38 15.5t-15 38.5q0 22 15.5 37.5t37.5 15.5q23 0 38.5 -15t15.5 -38t-15.5 -38.5t-38.5 -15.5zM171 538q-23 0 -38 15.5t-15 38.5q0 22 15.5 37.5t37.5 15.5q23 0 38.5 -15t15.5 -38t-15.5 -38.5t-38.5 -15.5zM218 -12q-69 0 -105.5 40t-36.5 110v342h73
v-328q0 -98 86 -98q68 0 138 88v338h73v-379q0 -59 9 -101h-74q-4 19 -7 71q-60 -83 -156 -83z" />
    <glyph glyph-name="thorn" unicode="&#xfe;" horiz-adv-x="530" 
d="M270 51q72 0 110 61q31 50 31 127t-27 126q-34 61 -105 61q-74 0 -124 -67v-264q51 -44 115 -44zM82 720h73v-292q53 64 139 64q99 0 151 -79q44 -68 44 -172t-53 -174q-58 -79 -159 -79q-76 0 -122 42v-249h-73v939z" />
    <glyph glyph-name="ydieresis" unicode="&#xff;" horiz-adv-x="469" 
d="M330 538q-23 0 -38 15.5t-15 38.5q0 22 15.5 37.5t37.5 15.5q23 0 38.5 -15t15.5 -38t-15.5 -38.5t-38.5 -15.5zM143 538q-23 0 -38 15.5t-15 38.5q0 22 15.5 37.5t37.5 15.5q23 0 38.5 -15t15.5 -38t-15.5 -38.5t-38.5 -15.5zM57 -232q-28 0 -46 5l10 61q15 -3 37 -3
q64 0 99 58q9 16 45 114l-181 477h82l137 -383h2l133 383h78l-204 -544q-32 -84 -67 -120q-46 -48 -125 -48z" />
    <glyph glyph-name="dotlessi" unicode="&#x131;" horiz-adv-x="250" 
d="M88 480h74v-480h-74v480z" />
    <glyph glyph-name="Lslash" unicode="&#x141;" horiz-adv-x="479" 
d="M96 280l-73 -57l-32 42l105 84v317h78v-256l106 84l34 -43l-140 -110v-275h262v-66h-340v280z" />
    <glyph glyph-name="lslash" unicode="&#x142;" horiz-adv-x="270" 
d="M91 278l-67 -54v68l67 54v374h73v-314l81 66v-69l-81 -66v-337h-73v278z" />
    <glyph glyph-name="OE" unicode="&#x152;" horiz-adv-x="905" 
d="M379 53q55 0 99 18v523q-44 19 -97 19q-115 0 -183 -84q-63 -78 -63 -195q0 -118 62 -196q67 -85 182 -85zM381 -12q-145 0 -238 100q-90 97 -90 244t90.5 246.5t235.5 99.5q35 0 67 -5q41 -7 32 -7h362v-66h-284v-214h252v-66h-252v-254h291v-66h-369q9 0 -30 -7
q-32 -5 -67 -5z" />
    <glyph glyph-name="oe" unicode="&#x153;" horiz-adv-x="859" 
d="M739 300q-5 129 -116 129q-109 0 -132 -129h248zM263 51q74 0 113 59q34 51 34 129t-36 130q-41 60 -116 60q-74 0 -110 -60q-30 -49 -30 -128t32 -130q38 -60 113 -60zM262 -12q-104 0 -165 75q-57 70 -57 176q0 107 55 177q60 76 164 76q129 0 188 -106q58 106 178 106
q97 0 146 -69q43 -60 43 -160q0 -8 -2 -21h-325q0 -82 34 -132q39 -59 117 -59q64 0 133 43l30 -57q-74 -49 -165 -49q-131 0 -188 105q-63 -105 -186 -105z" />
    <glyph glyph-name="Scaron" unicode="&#x160;" horiz-adv-x="515" 
d="M116 872h69l81 -85l79 85h69l-123 -153h-54zM241 -12q-123 0 -197 74l40 55q64 -64 160 -64q54 0 96 29q46 32 46 84q0 67 -83 115q-77 40 -154 81q-83 56 -83 146q0 80 62 127q56 43 138 43q108 0 183 -58l-38 -57q-59 50 -146 50q-50 0 -84 -25q-38 -28 -38 -76
q0 -62 83 -107q78 -41 156 -81q83 -60 83 -157q0 -86 -71 -136q-63 -43 -153 -43z" />
    <glyph glyph-name="scaron" unicode="&#x161;" horiz-adv-x="408" 
d="M53 692h69l81 -85l79 85h69l-123 -153h-54zM193 -13q-86 0 -152 46l32 56q55 -39 119 -39q98 0 98 69q0 43 -62 73l-114 56q-62 42 -62 112q0 63 46 99q41 33 106 33q73 0 142 -46l-36 -53q-47 36 -107 36q-80 0 -80 -66q0 -42 62 -73q58 -28 117 -56q62 -41 62 -105
q0 -71 -52 -109q-45 -33 -119 -33z" />
    <glyph glyph-name="Ydieresis" unicode="&#x178;" horiz-adv-x="555" 
d="M370 718q-23 0 -38 15.5t-15 38.5q0 22 15.5 37.5t37.5 15.5q23 0 38.5 -15t15.5 -38t-15.5 -38.5t-38.5 -15.5zM183 718q-23 0 -38 15.5t-15 38.5q0 22 15.5 37.5t37.5 15.5q23 0 38.5 -15t15.5 -38t-15.5 -38.5t-38.5 -15.5zM241 252l-223 414h87l178 -340h1l178 340
h75l-218 -414v-252h-78v252z" />
    <glyph glyph-name="Zcaron" unicode="&#x17d;" horiz-adv-x="561" 
d="M140 872h69l81 -85l79 85h69l-123 -153h-54zM46 55l364 547h-347v64h439v-51l-369 -551h381v-64h-468v55z" />
    <glyph glyph-name="zcaron" unicode="&#x17e;" horiz-adv-x="423" 
d="M66 692h69l81 -85l79 85h69l-123 -153h-54zM42 46l244 375h-230v59h319v-49l-245 -372h249v-59h-337v46z" />
    <glyph glyph-name="florin" unicode="&#x192;" horiz-adv-x="435" 
d="M23 -188q-55 0 -88 20l23 59q30 -15 58 -15q102 0 117 133l40 359h-103l8 58h102q14 128 17 145q15 77 52 115q45 46 134 46q63 0 108 -29l-29 -59q-33 24 -88 24q-97 0 -112 -133l-12 -109h112l-10 -58h-108l-41 -368q-21 -188 -180 -188z" />
    <glyph glyph-name="circumflex" unicode="&#x2c6;" horiz-adv-x="500" 
d="M224 694h54l121 -153h-69l-81 85l-79 -85h-69z" />
    <glyph glyph-name="caron" unicode="&#x2c7;" horiz-adv-x="500" 
d="M101 692h69l81 -85l79 85h69l-123 -153h-54z" />
    <glyph glyph-name="breve" unicode="&#x2d8;" horiz-adv-x="500" 
d="M250 536q-62 0 -101 41q-38 38 -43 101h65q7 -84 79 -84q71 0 78 84h65q-5 -63 -43 -102.5t-100 -39.5z" />
    <glyph glyph-name="dotaccent" unicode="&#x2d9;" horiz-adv-x="500" 
d="M250 570q-23 0 -38.5 15.5t-15.5 38.5t15.5 38.5t38.5 15.5t38.5 -15.5t15.5 -38.5t-15.5 -38.5t-38.5 -15.5z" />
    <glyph glyph-name="ring" unicode="&#x2da;" horiz-adv-x="500" 
d="M250 585q22 0 36 16t14 39t-13.5 39t-36.5 16t-36.5 -16t-13.5 -39t14 -39t36 -16zM250 545q-38 0 -66.5 28.5t-28.5 66.5t28.5 66.5t66.5 28.5t66.5 -28.5t28.5 -66.5t-28.5 -66.5t-66.5 -28.5z" />
    <glyph glyph-name="ogonek" unicode="&#x2db;" horiz-adv-x="500" 
d="M263 -219q-43 0 -70.5 24.5t-27.5 67.5q0 63 64 127h50q-52 -67 -52 -119q0 -48 50 -48q22 0 43 8l11 -43q-31 -17 -68 -17z" />
    <glyph glyph-name="tilde" unicode="&#x2dc;" horiz-adv-x="500" 
d="M299 543q-25 0 -56 19.5t-50 19.5q-17 0 -49 -32l-39 37q47 60 94 60q26 0 57.5 -19.5t48.5 -19.5q28 0 51 31l39 -38q-46 -58 -96 -58z" />
    <glyph glyph-name="hungarumlaut" unicode="&#x2dd;" horiz-adv-x="500" 
d="M337 666h105l-133 -126h-65zM173 666h105l-133 -126h-65z" />
    <glyph glyph-name="Delta" unicode="&#x394;" horiz-adv-x="607" 
d="M499 66l-198 613l-200 -613h398zM20 52l246 708h76l245 -708v-52h-567v52z" />
    <glyph glyph-name="Delta" unicode="&#x2206;" horiz-adv-x="607" 
d="M499 66l-198 613l-200 -613h398zM20 52l246 708h76l245 -708v-52h-567v52z" />
    <glyph glyph-name="Omega" unicode="&#x3a9;" horiz-adv-x="744" 
d="M61 66h139q-67 43 -106 127q-35 78 -35 163q0 135 89 228.5t224 93.5t224 -93.5t89 -228.5q0 -85 -35 -163q-39 -84 -106 -127h140v-66h-228v64q147 104 147 292q0 102 -64 177q-67 80 -167 80q-101 0 -168 -79q-63 -76 -63 -178q0 -187 148 -292v-64h-228v66z" />
    <glyph glyph-name="Omega" unicode="&#x2126;" horiz-adv-x="744" 
d="M61 66h139q-67 43 -106 127q-35 78 -35 163q0 135 89 228.5t224 93.5t224 -93.5t89 -228.5q0 -85 -35 -163q-39 -84 -106 -127h140v-66h-228v64q147 104 147 292q0 102 -64 177q-67 80 -167 80q-101 0 -168 -79q-63 -76 -63 -178q0 -187 148 -292v-64h-228v66z" />
    <glyph glyph-name="pi" unicode="&#x3c0;" horiz-adv-x="611" 
d="M478 -12q-100 0 -100 117v317h-174q0 -216 -30 -422h-75q34 217 34 422h-99v58h533v-58h-116v-310q0 -61 36 -61q18 0 35 14l25 -54q-29 -23 -69 -23z" />
    <glyph glyph-name="endash" unicode="&#x2013;" 
d="M40 345h465v-61h-465v61z" />
    <glyph glyph-name="emdash" unicode="&#x2014;" 
d="M40 345h465v-61h-465v61z" />
    <glyph glyph-name="quoteleft" unicode="&#x2018;" horiz-adv-x="203" 
d="M97 434q-27 0 -44 19t-17 47q0 47 37 103q33 48 77 81l29 -26q-55 -52 -55 -92q0 -15 13.5 -37.5t13.5 -40.5q0 -23 -15.5 -38.5t-38.5 -15.5z" />
    <glyph glyph-name="quoteright" unicode="&#x2019;" horiz-adv-x="203" 
d="M106 684q27 0 44 -19t17 -47q0 -48 -37 -103q-32 -48 -77 -81l-29 26q55 52 55 92q0 15 -13.5 37.5t-13.5 40.5q0 23 15.5 38.5t38.5 15.5z" />
    <glyph glyph-name="quotesinglbase" unicode="&#x201a;" horiz-adv-x="203" 
d="M106 109q27 0 44 -19t17 -47q0 -48 -37 -103q-32 -48 -77 -81l-29 26q55 52 55 92q0 15 -13.5 37.5t-13.5 40.5q0 23 15.5 38.5t38.5 15.5z" />
    <glyph glyph-name="quotedblleft" unicode="&#x201c;" horiz-adv-x="371" 
d="M265 434q-27 0 -44 19t-17 47q0 47 37 103q33 48 77 81l29 -26q-55 -52 -55 -92q0 -15 13.5 -37.5t13.5 -40.5q0 -23 -15.5 -38.5t-38.5 -15.5zM97 434q-27 0 -44 19t-17 47q0 47 37 103q33 48 77 81l29 -26q-55 -52 -55 -92q0 -15 13.5 -37.5t13.5 -40.5
q0 -23 -15.5 -38.5t-38.5 -15.5z" />
    <glyph glyph-name="quotedblright" unicode="&#x201d;" horiz-adv-x="371" 
d="M274 684q27 0 44 -19t17 -47q0 -48 -37 -103q-32 -48 -77 -81l-29 26q55 52 55 92q0 15 -13.5 37.5t-13.5 40.5q0 23 15.5 38.5t38.5 15.5zM106 684q27 0 44 -19t17 -47q0 -48 -37 -103q-32 -48 -77 -81l-29 26q55 52 55 92q0 15 -13.5 37.5t-13.5 40.5q0 23 15.5 38.5
t38.5 15.5z" />
    <glyph glyph-name="quotedblbase" unicode="&#x201e;" horiz-adv-x="371" 
d="M274 109q27 0 44 -19t17 -47q0 -48 -37 -103q-32 -48 -77 -81l-29 26q55 52 55 92q0 15 -13.5 37.5t-13.5 40.5q0 23 15.5 38.5t38.5 15.5zM106 109q27 0 44 -19t17 -47q0 -48 -37 -103q-32 -48 -77 -81l-29 26q55 52 55 92q0 15 -13.5 37.5t-13.5 40.5q0 23 15.5 38.5
t38.5 15.5z" />
    <glyph glyph-name="dagger" unicode="&#x2020;" horiz-adv-x="543" 
d="M228 276l16 142l-82 -8h-110v70h110l82 -8l-13 111v137h81v-137l-13 -111l82 8h110v-70h-110l-82 8l15 -142l-6 -149l-12 -297h-49l-13 297z" />
    <glyph glyph-name="daggerdbl" unicode="&#x2021;" horiz-adv-x="543" 
d="M231 -31l13 111l-82 -8h-110v70h110l82 -8l-16 142l16 142l-82 -8h-110v70h110l82 -8l-13 111v137h81v-137l-13 -111l82 8h110v-70h-110l-82 8l15 -142l-15 -142l82 8h110v-70h-110l-82 8l13 -111v-137h-81v137z" />
    <glyph glyph-name="bullet" unicode="&#x2022;" horiz-adv-x="362" 
d="M181 162q-52 0 -88.5 36t-36.5 88q0 51 37 88t88 37t88 -37t37 -88q0 -52 -36.5 -88t-88.5 -36z" />
    <glyph glyph-name="ellipsis" unicode="&#x2026;" horiz-adv-x="621" 
d="M511 -9q-25 0 -42.5 17.5t-17.5 42.5t17.5 42t42.5 17t42.5 -17t17.5 -42t-17.5 -42.5t-42.5 -17.5zM310 -9q-25 0 -42 17.5t-17 42.5t17 42t42 17q26 0 43 -16.5t17 -42.5t-17 -43t-43 -17zM110 -9q-26 0 -43 17t-17 43t17 42.5t43 16.5q25 0 42.5 -17t17.5 -42
t-17.5 -42.5t-42.5 -17.5z" />
    <glyph glyph-name="perthousand" unicode="&#x2030;" horiz-adv-x="1227" 
d="M592 666h69l-427 -666h-69zM1024 47q49 0 78 32t29 81q0 50 -29 81.5t-79 31.5q-49 0 -78.5 -31.5t-29.5 -80.5q0 -50 29.5 -82t79.5 -32zM1024 -7q-76 0 -124.5 46t-48.5 121q0 74 48.5 120.5t122.5 46.5q75 0 124 -45.5t49 -120.5t-48 -121.5t-123 -46.5zM623 47
q49 0 78 32t29 81q0 50 -29 81.5t-79 31.5q-49 0 -78.5 -31.5t-29.5 -80.5q0 -50 29.5 -82t79.5 -32zM623 -7q-76 0 -124.5 46t-48.5 121q0 74 48.5 120.5t122.5 46.5q75 0 124 -45.5t49 -120.5t-48 -121.5t-123 -46.5zM205 396q49 0 78 32t29 81q0 50 -29 81.5t-79 31.5
q-49 0 -78.5 -31.5t-29.5 -80.5q0 -50 29.5 -82t79.5 -32zM205 342q-76 0 -124.5 46t-48.5 121q0 74 48.5 120.5t122.5 46.5q75 0 124 -45.5t49 -120.5t-48 -121.5t-123 -46.5z" />
    <glyph glyph-name="guilsinglleft" unicode="&#x2039;" horiz-adv-x="298" 
d="M45 245l133 190h77l-132 -190l132 -189h-77z" />
    <glyph glyph-name="guilsinglright" unicode="&#x203a;" horiz-adv-x="298" 
d="M175 245l-132 190h76l134 -190l-134 -189h-76z" />
    <glyph glyph-name="Euro" unicode="&#x20ac;" horiz-adv-x="583" 
d="M9 424h105q18 113 89 181q75 73 186 73q92 0 156 -40l-34 -61q-64 36 -124 36q-79 0 -131 -57q-44 -49 -60 -132h228v-59h-236v-28q0 -29 2 -53h234v-59h-224q20 -77 65 -121q51 -50 126 -50q69 0 126 39l36 -56q-74 -49 -164 -49q-105 0 -179 68q-69 63 -92 169h-109v59
h100q-6 38 -1 81h-99v59z" />
    <glyph glyph-name="trademark" unicode="&#x2122;" horiz-adv-x="714" 
d="M116 621h-83v45h226v-45h-84v-246h-59v246zM473 375l57 226l20 -226h63l-32 291h-81l-56 -227l-68 227h-80l-31 -291h59l20 226l63 -226h66z" />
    <glyph glyph-name="partialdiff" unicode="&#x2202;" horiz-adv-x="543" 
d="M247 51q85 0 143 89q48 74 56 167q-29 22 -88 37q-53 13 -96 13q-68 0 -108 -51q-36 -47 -36 -117q0 -57 36 -97.5t93 -40.5zM244 -12q-84 0 -143.5 56.5t-59.5 140.5q0 98 61.5 166t157.5 68q44 0 97 -14q59 -15 89 -38q-15 274 -292 274l21 61h4q162 0 253.5 -94.5
t91.5 -257.5q0 -139 -69 -243q-78 -119 -211 -119z" />
    <glyph glyph-name="product" unicode="&#x220f;" horiz-adv-x="600" 
d="M70 699h-50v61h560v-61h-50v-699h-75v699h-310v-699h-75v699z" />
    <glyph glyph-name="summation" unicode="&#x2211;" horiz-adv-x="573" 
d="M40 56l278 324l-262 324v56h482v-66h-399l256 -311l-272 -317h430v-66h-513v56z" />
    <glyph glyph-name="fraction" unicode="&#x2215;" horiz-adv-x="98" 
d="M227 666h61l-417 -666h-61z" />
    <glyph glyph-name="radical" unicode="&#x221a;" horiz-adv-x="571" 
d="M50 480h76l145 -389h2l198 629h75l-239 -720h-70z" />
    <glyph glyph-name="infinity" unicode="&#x221e;" horiz-adv-x="882" 
d="M670 223q40 0 73 26.5t33 65.5q0 43 -35 69q-31 24 -76 24q-54 0 -173 -91q122 -94 178 -94zM217 223q56 0 174 91q-119 94 -178 94q-40 0 -73 -26t-33 -65q0 -43 34 -70q31 -24 76 -24zM211 164q-70 0 -118 38q-53 42 -53 110t53 112t122 44q86 0 229 -112
q144 112 227 112q69 0 118 -39q53 -41 53 -109q0 -69 -55 -114q-51 -42 -121 -42q-87 0 -227 111q-70 -54 -106 -74q-66 -37 -122 -37z" />
    <glyph glyph-name="integral" unicode="&#x222b;" horiz-adv-x="339" 
d="M28 -235q-36 0 -78 18l23 61q31 -13 64 -13q105 0 105 145v575q0 86 49.5 137.5t135.5 51.5q36 0 77 -19l-27 -60q-29 13 -59 13q-54 0 -82 -46q-23 -39 -23 -97v-577q0 -87 -49 -138t-136 -51z" />
    <glyph glyph-name="approxequal" unicode="&#x2248;" 
d="M377 301q-53 0 -120 35t-99 35q-44 0 -89 -40l-36 45q68 59 131 59q40 0 109 -34.5t110 -34.5q45 0 95 41l34 -45q-63 -61 -135 -61zM377 191q-53 0 -120 35t-99 35q-44 0 -89 -40l-36 45q68 59 131 59q40 0 109 -34.5t110 -34.5q45 0 95 41l34 -45q-63 -61 -135 -61z
" />
    <glyph glyph-name="approxequal" unicode="&#x22f2;" 
d="M377 301q-53 0 -120 35t-99 35q-44 0 -89 -40l-36 45q68 59 131 59q40 0 109 -34.5t110 -34.5q45 0 95 41l34 -45q-63 -61 -135 -61zM377 191q-53 0 -120 35t-99 35q-44 0 -89 -40l-36 45q68 59 131 59q40 0 109 -34.5t110 -34.5q45 0 95 41l34 -45q-63 -61 -135 -61z
" />
    <glyph glyph-name="notequal" unicode="&#x2260;" 
d="M344 506h61l-53 -100h153v-61h-186l-32 -61h218v-61h-251l-53 -100h-61l53 100h-153v61h186l32 61h-218v61h251z" />
    <glyph glyph-name="lessequal" unicode="&#x2264;" 
d="M38 316l446 222l23 -47l-358 -175l358 -168l-23 -51zM50 61h455v-61h-455v61z" />
    <glyph glyph-name="greaterequal" unicode="&#x2265;" 
d="M507 316l-446 222l-23 -47l358 -175l-358 -168l23 -51zM40 61h455v-61h-455v61z" />
    <glyph glyph-name="lozenge" unicode="&#x25ca;" horiz-adv-x="616" 
d="M498 338l-194 251l-186 -264l195 -252zM34 323l252 349h40l256 -330l-250 -347h-42z" />
  </font>
</defs>
</svg>
