<?xml version="1.0" standalone="no"?>
<!DOCTYPE svg PUBLIC "-//W3C//DTD SVG 1.1//EN" "http://www.w3.org/Graphics/SVG/1.1/DTD/svg11.dtd" >
<svg xmlns="http://www.w3.org/2000/svg" xmlns:xlink="http://www.w3.org/1999/xlink" version="1.1">
<metadata>
Created by FontForge 20170731 at Tue Aug  6 20:44:50 2013
 By Aleksey,,,
(c) 2005 Mike Abbink, Paulvan der Laan. Published by FSI FontShop International GmbH. Modified by Martin Sorger.
</metadata>
<defs>
<font id="WDRSansLight" horiz-adv-x="512" >
  <font-face 
    font-family="WDR Sans"
    font-weight="200"
    font-stretch="normal"
    units-per-em="1000"
    panose-1="0 0 2 0 0 0 0 0 0 0"
    ascent="800"
    descent="-200"
    x-height="477"
    cap-height="666"
    bbox="-181 -250 980 886"
    underline-thickness="40"
    underline-position="-175"
    unicode-range="U+0020-25CA"
  />
<missing-glyph horiz-adv-x="500" 
d="M63 0v760h375v-760h-375zM125 63h250v635h-250v-635z" />
    <glyph glyph-name=".notdef" horiz-adv-x="500" 
d="M63 0v760h375v-760h-375zM125 63h250v635h-250v-635z" />
    <glyph glyph-name=".null" horiz-adv-x="0" 
 />
    <glyph glyph-name="nonmarkingreturn" horiz-adv-x="232" 
 />
    <glyph glyph-name="space" unicode=" " horiz-adv-x="232" 
 />
    <glyph glyph-name="exclam" unicode="!" horiz-adv-x="260" 
d="M98 666h63l-11 -485h-40zM130 -8q-18 0 -30.5 13t-12.5 31t12.5 30.5t30.5 12.5t30 -12.5t12 -30.5t-12.5 -31t-29.5 -13z" />
    <glyph glyph-name="quotedbl" unicode="&#x22;" horiz-adv-x="324" 
d="M242 674q20 0 31.5 -14.5t11.5 -34.5q0 -39 -30 -85q-25 -38 -61 -68l-23 18q49 52 49 84q0 11 -9.5 28.5t-9.5 30.5q0 17 12 29t29 12zM97 674q20 0 31.5 -14.5t11.5 -34.5q0 -39 -30 -85q-25 -38 -61 -68l-23 18q49 52 49 84q0 11 -9.5 28.5t-9.5 30.5q0 17 12 29
t29 12z" />
    <glyph glyph-name="numbersign" unicode="#" horiz-adv-x="485" 
d="M289 308l18 123h-112l-18 -123h112zM126 264h-102l7 44h102l19 123h-102l6 44h101l21 135h44l-21 -135h112l20 135h44l-20 -135h103l-7 -44h-102l-18 -123h103l-7 -44h-103l-22 -152h-44l22 152h-111l-23 -152h-44z" />
    <glyph glyph-name="dollar" unicode="$" horiz-adv-x="402" 
d="M180 -11q-86 6 -136 47l24 40q54 -42 132 -42q48 0 79 17q40 21 40 65q0 46 -69 80l-128 60q-69 42 -69 108q0 53 38 86q34 30 89 36v105h51v-104q75 -6 121 -47l-26 -39q-47 42 -121 42q-101 0 -101 -77q0 -45 69 -79q65 -30 130 -61q69 -41 69 -104q0 -59 -42 -94
q-37 -31 -99 -38v-113h-51v112z" />
    <glyph glyph-name="percent" unicode="%" horiz-adv-x="702" 
d="M474 477h46l-285 -477h-46zM534 26q42 0 64.5 27t22.5 70t-23 70t-65 27t-64.5 -26.5t-22.5 -69.5t23 -70.5t65 -27.5zM533 -11q-58 0 -95 37.5t-37 95.5t38 96.5t96 38.5t94.5 -37.5t36.5 -95.5t-37.5 -96.5t-95.5 -38.5zM170 258q42 0 64 27t22 70t-22.5 70.5
t-64.5 27.5t-64.5 -27t-22.5 -70t22 -69q24 -29 66 -29zM168 222q-58 0 -94.5 37.5t-36.5 95.5t37.5 96t95.5 38t94.5 -37t36.5 -95t-37.5 -96.5t-95.5 -38.5z" />
    <glyph glyph-name="ampersand" unicode="&#x26;" horiz-adv-x="611" 
d="M259 36q94 0 166 74l-211 217q-119 -67 -119 -156q0 -64 52 -101q46 -34 112 -34zM231 384q132 75 132 155q0 42 -31 68t-74 26q-47 0 -79.5 -27.5t-32.5 -74.5q0 -58 85 -147zM257 -11q-86 0 -148 45q-68 51 -68 134q0 66 43 115q31 35 100 75q-93 99 -93 170
q0 69 51 110q47 39 117 39q64 0 108 -36q48 -38 48 -100q0 -101 -155 -188l197 -204q43 65 59 162l49 -9q-18 -109 -75 -187l111 -115h-70l-75 77q-84 -88 -199 -88z" />
    <glyph glyph-name="quotesingle" unicode="'" horiz-adv-x="179" 
d="M97 674q20 0 31.5 -14.5t11.5 -34.5q0 -39 -30 -85q-25 -38 -61 -68l-23 18q49 52 49 84q0 11 -9.5 28.5t-9.5 30.5q0 17 12 29t29 12z" />
    <glyph glyph-name="parenleft" unicode="(" horiz-adv-x="296" 
d="M242 -181q-182 194 -182 457q0 256 182 444h50q-179 -193 -179 -443q0 -259 179 -458h-50z" />
    <glyph glyph-name="parenright" unicode=")" horiz-adv-x="296" 
d="M4 -181q179 193 179 443q0 259 -179 458h50q182 -194 182 -457q0 -256 -182 -444h-50z" />
    <glyph glyph-name="asterisk" unicode="*" horiz-adv-x="440" 
d="M101 369l87 116l-139 43l14 40l136 -47l-3 145h47l-3 -146l137 49l14 -41l-140 -43l87 -116l-34 -25l-84 119l-84 -119z" />
    <glyph glyph-name="plus" unicode="+" 
d="M234 112v193h-194v45h194v194h45v-194h193v-45h-193v-193h-45z" />
    <glyph glyph-name="comma" unicode="," horiz-adv-x="198" 
d="M99 83q45 0 45 -47q0 -42 -30 -90q-28 -43 -65 -72l-22 19q49 51 49 86q0 12 -10 29t-10 30q0 19 12 32t31 13z" />
    <glyph glyph-name="hyphen" unicode="-" horiz-adv-x="301" 
d="M55 312h191v-46h-191v46z" />
    <glyph glyph-name="hyphen" unicode="&#x2010;" horiz-adv-x="301" 
d="M55 312h191v-46h-191v46z" />
    <glyph glyph-name="period" unicode="." horiz-adv-x="190" 
d="M95 -9q-19 0 -32 14t-13 33t13 32t32 13t32 -13t13 -32q0 -20 -13 -33.5t-32 -13.5z" />
    <glyph glyph-name="slash" unicode="/" horiz-adv-x="393" 
d="M271 720h47l-236 -881h-47z" />
    <glyph glyph-name="zero" unicode="0" 
d="M255 34q89 0 129 112q27 77 27 187q0 109 -28 187q-40 112 -128 112q-89 0 -128 -112q-27 -77 -27 -187q0 -109 27 -186q40 -113 128 -113zM255 -11q-115 0 -170 122q-40 90 -40 222q0 134 39 223q54 121 171 121q115 0 171 -121q41 -91 41 -223t-41 -223
q-55 -121 -171 -121z" />
    <glyph glyph-name="one" unicode="1" horiz-adv-x="326" 
d="M169 616l-132 -45l-12 45l151 50h46v-666h-53v616z" />
    <glyph glyph-name="two" unicode="2" 
d="M44 30q156 166 196 215q125 158 125 255q0 60 -33.5 95.5t-93.5 35.5q-86 0 -153 -67l-27 33q75 80 183 80q81 0 131 -45t50 -125q0 -102 -112 -248q-45 -58 -190 -212h317v-47h-393v30z" />
    <glyph glyph-name="three" unicode="3" 
d="M177 -11q-66 0 -120 15l10 45q42 -14 112 -14q77 0 130 40q60 44 60 118q0 83 -81 121q-61 28 -155 28v40q76 0 140 36q76 43 76 113q0 51 -39 76q-33 22 -87 22q-82 0 -149 -59l-25 34q73 73 176 73q76 0 124 -32q55 -38 55 -111q0 -59 -50 -107q-44 -41 -106 -58v-1
q73 -9 123 -54q54 -49 54 -119q0 -96 -78 -154q-71 -52 -170 -52z" />
    <glyph glyph-name="four" unicode="4" 
d="M330 207v379l-249 -379h249zM330 159h-307v43l306 464h53v-459h90v-48h-90v-159h-52v159z" />
    <glyph glyph-name="five" unicode="5" 
d="M157 -11q-67 0 -100 11l10 45q40 -10 92 -10q87 0 146 42q67 48 67 132q0 85 -67 127q-55 34 -146 34q-53 0 -75 -3l19 299h308v-47h-260l-13 -203q290 0 290 -203q0 -110 -83 -170q-74 -54 -188 -54z" />
    <glyph glyph-name="six" unicode="6" 
d="M262 34q66 0 105 47q37 44 37 111q0 74 -37 118t-110 44q-91 0 -153 -60q-1 -5 -1 -28q0 -93 33 -154q41 -78 126 -78zM259 -11q-105 0 -162 90q-48 76 -48 187q0 184 94 294q100 118 281 118l9 -43q-291 0 -325 -296q60 60 153 60q89 0 143.5 -57t54.5 -147
q0 -89 -55.5 -147.5t-144.5 -58.5z" />
    <glyph glyph-name="seven" unicode="7" 
d="M134 -5l264 624h-336v47h392v-40l-271 -649z" />
    <glyph glyph-name="eight" unicode="8" 
d="M257 377q62 39 83 58q44 40 44 85q0 51 -37 81t-89 30q-53 0 -89 -27q-40 -31 -40 -82q0 -47 44 -87q18 -17 84 -58zM256 35q59 0 100.5 34.5t41.5 92.5q0 51 -52 99q-30 27 -97 67q-62 -39 -90 -68q-46 -47 -46 -98q0 -59 43 -94q39 -33 100 -33zM254 -11q-81 0 -136 44
q-60 47 -60 126q0 103 154 191q-64 38 -93 68q-44 47 -44 103q0 71 57 115q53 41 126 41q74 0 124 -39q56 -42 56 -114q0 -57 -47 -103q-29 -28 -97 -67q75 -45 106 -77q53 -52 53 -115q0 -80 -61 -128q-56 -45 -138 -45z" />
    <glyph glyph-name="nine" unicode="9" 
d="M253 313q90 0 150 58q1 5 1 29q0 93 -31 154q-41 78 -125 78q-66 0 -103.5 -45.5t-37.5 -112.5q0 -74 35 -116q38 -45 111 -45zM85 24q141 0 222 82q76 77 93 220q-58 -58 -151 -58q-88 0 -142.5 57t-54.5 146t55 147.5t143 58.5q105 0 161 -89q47 -76 47 -187
q0 -187 -86 -298q-96 -122 -278 -122z" />
    <glyph glyph-name="colon" unicode=":" horiz-adv-x="193" 
d="M96 393q-19 0 -32 13.5t-13 32.5t13 32.5t32 13.5q20 0 32.5 -13t12.5 -33q0 -19 -13 -32.5t-32 -13.5zM96 -9q-19 0 -32 14t-13 33t13 32.5t32 13.5q20 0 32.5 -13t12.5 -33q0 -19 -13 -33t-32 -14z" />
    <glyph glyph-name="semicolon" unicode=";" horiz-adv-x="200" 
d="M100 83q45 0 45 -47q0 -42 -30 -90q-28 -43 -65 -72l-22 19q49 51 49 86q0 12 -10 29t-10 30q0 19 12 32t31 13zM99 393q-19 0 -32 13.5t-13 32.5q0 20 12.5 33t32.5 13t32.5 -13t12.5 -33q0 -19 -13 -32.5t-32 -13.5z" />
    <glyph glyph-name="less" unicode="&#x3c;" 
d="M38 330l419 198l17 -42l-348 -156l348 -152l-17 -44z" />
    <glyph glyph-name="equal" unicode="=" 
d="M40 405h432v-45h-432v45zM40 295h432v-45h-432v45z" />
    <glyph glyph-name="greater" unicode="&#x3e;" 
d="M474 330l-419 198l-17 -42l348 -156l-348 -152l17 -44z" />
    <glyph glyph-name="question" unicode="?" horiz-adv-x="390" 
d="M139 -8q-18 0 -30.5 13t-12.5 31t12.5 30.5t30.5 12.5t30 -12.5t12 -30.5t-12.5 -31t-29.5 -13zM113 243q0 67 44 107l82 60q44 38 44 101q0 120 -135 120q-43 0 -81 -20l-20 41q48 25 105 25q85 0 133 -38q52 -42 52 -125q0 -64 -33 -106q-19 -24 -69 -59
q-46 -31 -59 -53t-15 -59q1 13 1 -60h-49v66z" />
    <glyph glyph-name="at" unicode="@" horiz-adv-x="751" 
d="M311 129q102 0 165 282q-26 13 -61 13q-70 0 -114 -78q-37 -66 -37 -141q0 -76 47 -76zM363 -86q-142 0 -231.5 92t-89.5 234q0 151 103.5 262t253.5 111q130 0 219 -82q93 -84 93 -213q0 -82 -42 -152q-48 -82 -125 -82q-46 0 -73 35q-25 31 -25 77q0 14 3 28h-2
q-55 -140 -147 -140q-42 0 -67 37q-21 33 -21 77q0 99 53 177q60 87 155 87q48 0 106 -23q-13 -57 -25 -114q-14 -68 -14 -116q0 -32 14 -55q16 -28 46 -28q57 0 92 68q29 57 29 119q0 116 -76.5 187.5t-193.5 71.5q-128 0 -218 -100.5t-90 -229.5q0 -126 77 -206t203 -80
q92 0 152 30l17 -37q-70 -35 -176 -35z" />
    <glyph glyph-name="A" unicode="A" horiz-adv-x="608" 
d="M442 227l-140 374l-140 -374h280zM276 666h56l254 -666h-58l-68 180h-316l-67 -180h-55z" />
    <glyph glyph-name="B" unicode="B" horiz-adv-x="567" 
d="M257 374q167 0 167 125q0 120 -166 120h-104v-245h103zM261 47q192 0 192 137q0 144 -189 144h-110v-281h107zM100 666h162q217 0 217 -164q0 -119 -122 -148v-2q68 -13 109 -55q43 -45 43 -112q0 -185 -247 -185h-162v666z" />
    <glyph glyph-name="C" unicode="C" horiz-adv-x="610" 
d="M373 -11q-143 0 -233 102q-86 97 -86 243q0 144 89 243.5t232 99.5q103 0 178 -49l-28 -42q-64 45 -152 45q-120 0 -193 -89q-69 -83 -69 -206q0 -125 68 -209q74 -91 196 -91q98 0 167 58l27 -39q-73 -66 -196 -66z" />
    <glyph glyph-name="D" unicode="D" horiz-adv-x="667" 
d="M246 46q147 0 227 71q85 75 85 220q0 283 -316 283h-87v-574h91zM100 666h144q168 0 265 -78q106 -85 106 -249q0 -166 -105 -256q-99 -83 -268 -83h-142v666z" />
    <glyph glyph-name="E" unicode="E" horiz-adv-x="513" 
d="M100 666h347v-47h-292v-240h259v-47h-259v-285h299v-47h-354v666z" />
    <glyph glyph-name="F" unicode="F" horiz-adv-x="502" 
d="M100 666h357v-47h-302v-260h265v-47h-265v-312h-55v666z" />
    <glyph glyph-name="G" unicode="G" horiz-adv-x="701" 
d="M376 -11q-143 0 -234 102q-88 98 -88 243q0 146 90.5 244.5t234.5 98.5q120 0 199 -59l-30 -41q-69 54 -171 54q-123 0 -197 -87q-69 -83 -69 -208q0 -126 69 -210q75 -90 198 -90t187 50v205h-154v47h208v-279q-83 -70 -243 -70z" />
    <glyph glyph-name="H" unicode="H" horiz-adv-x="716" 
d="M100 666h55v-290h406v290h55v-666h-55v329h-406v-329h-55v666z" />
    <glyph glyph-name="I" unicode="I" horiz-adv-x="261" 
d="M103 666h55v-666h-55v666z" />
    <glyph glyph-name="J" unicode="J" horiz-adv-x="262" 
d="M32 -185q-32 0 -46 8l9 47q15 -6 35 -6q80 0 80 127v675h55v-685q0 -166 -133 -166z" />
    <glyph glyph-name="K" unicode="K" horiz-adv-x="556" 
d="M164 347l286 319h67l-286 -316l306 -350h-71zM100 666h54v-666h-54v666z" />
    <glyph glyph-name="L" unicode="L" horiz-adv-x="458" 
d="M100 666h55v-619h267v-47h-322v666z" />
    <glyph glyph-name="M" unicode="M" horiz-adv-x="844" 
d="M150 666h52l219 -600l221 600h53l89 -666h-55l-74 567l-207 -567h-55l-210 566l-71 -566h-52z" />
    <glyph glyph-name="N" unicode="N" horiz-adv-x="701" 
d="M99 666h54l397 -575v575h52v-666h-51l-401 579v-579h-51v666z" />
    <glyph glyph-name="O" unicode="O" horiz-adv-x="750" 
d="M375 35q121 0 195 90q69 84 69 207t-69 208q-74 91 -195 91t-195 -90q-69 -84 -69 -207q0 -124 69 -208q74 -91 195 -91zM375 -11q-144 0 -234 101q-87 97 -87 242t87 243q91 102 234 102q142 0 233 -101q88 -98 88 -242q0 -145 -87 -243q-91 -102 -234 -102z" />
    <glyph glyph-name="P" unicode="P" horiz-adv-x="521" 
d="M238 312q179 0 179 155q0 152 -177 152h-85v-307h83zM100 666h145q101 0 162 -47q66 -52 66 -150q0 -102 -68 -156q-61 -48 -166 -48h-84v-265h-55v666z" />
    <glyph glyph-name="Q" unicode="Q" horiz-adv-x="750" 
d="M375 35q121 0 195 90q69 84 69 207t-69 208q-74 91 -195 91t-195 -90q-69 -84 -69 -207q0 -124 69 -208q74 -91 195 -91zM614 -157q-75 0 -139 43q-49 33 -106 103q-141 2 -230 103q-85 97 -85 240q0 145 87 243q91 102 234 102q142 0 233 -101q88 -98 88 -242
q0 -128 -69 -221q-73 -99 -196 -119q42 -53 79 -77q46 -29 105 -29q48 0 80 26l22 -39q-32 -32 -103 -32z" />
    <glyph glyph-name="R" unicode="R" horiz-adv-x="560" 
d="M265 364q161 0 161 130q0 125 -165 125h-106v-255h110zM100 666h167q215 0 215 -171q0 -82 -56 -129q-52 -43 -136 -43v-1q22 -11 66 -74l173 -248h-65l-151 220q-28 41 -40 56q-30 36 -51 40q-10 2 -67 2v-318h-55v666z" />
    <glyph glyph-name="S" unicode="S" horiz-adv-x="490" 
d="M231 -11q-114 0 -187 67l30 38q66 -59 160 -59q60 0 103 33q47 36 47 95q0 73 -82 124q-76 43 -153 85q-82 57 -82 144q0 76 56 120q51 41 129 41q102 0 169 -52l-27 -40q-62 46 -143 46q-55 0 -91 -28q-39 -30 -39 -84q0 -68 82 -118l154 -86q82 -59 82 -150
q0 -84 -64 -132q-58 -44 -144 -44z" />
    <glyph glyph-name="T" unicode="T" horiz-adv-x="516" 
d="M231 619h-210v47h474v-47h-209v-619h-55v619z" />
    <glyph glyph-name="U" unicode="U" horiz-adv-x="681" 
d="M342 -11q-248 0 -248 261v416h55v-410q0 -219 195 -219q96 0 145 59q46 55 46 153v417h52v-414q0 -263 -245 -263z" />
    <glyph glyph-name="V" unicode="V" horiz-adv-x="600" 
d="M21 666h59l223 -599l221 599h55l-249 -666h-56z" />
    <glyph glyph-name="W" unicode="W" horiz-adv-x="862" 
d="M25 666h59l150 -579l172 579h56l169 -575l152 575h54l-181 -666h-51l-173 587l-176 -587h-50z" />
    <glyph glyph-name="X" unicode="X" horiz-adv-x="548" 
d="M241 345l-201 321h63l172 -275l166 275h60l-198 -321l217 -345h-63l-188 299l-181 -299h-60z" />
    <glyph glyph-name="Y" unicode="Y" horiz-adv-x="537" 
d="M243 251l-223 415h62l189 -360h2l189 360h56l-221 -415v-251h-54v251z" />
    <glyph glyph-name="Z" unicode="Z" horiz-adv-x="557" 
d="M46 42l384 578h-365v46h430v-37l-390 -583h403v-46h-462v42z" />
    <glyph glyph-name="bracketleft" unicode="[" horiz-adv-x="295" 
d="M85 720h184v-42h-133v-797h133v-42h-184v881z" />
    <glyph glyph-name="backslash" unicode="\" horiz-adv-x="393" 
d="M75 720h47l236 -881h-47z" />
    <glyph glyph-name="bracketright" unicode="]" horiz-adv-x="295" 
d="M26 -119h133v797h-133v42h184v-881h-184v42z" />
    <glyph glyph-name="asciicircum" unicode="^" 
d="M236 456h40l198 -288h-54l-164 237l-163 -237h-55z" />
    <glyph glyph-name="underscore" unicode="_" 
d="M40 312h432v-46h-432v46z" />
    <glyph glyph-name="grave" unicode="`" horiz-adv-x="500" 
d="M162 662h78l97 -122h-46z" />
    <glyph glyph-name="a" unicode="a" horiz-adv-x="458" 
d="M188 34q79 0 134 72v128h-26q-77 0 -126 -22q-68 -31 -68 -98q0 -36 25 -58t61 -22zM181 -11q-59 0 -96 32.5t-37 90.5q0 163 274 163v54q0 113 -105 113q-69 0 -124 -51l-28 36q64 61 156 61q153 0 153 -152v-240q0 -66 10 -96h-52q-4 23 -7 60q-55 -71 -144 -71z" />
    <glyph glyph-name="b" unicode="b" horiz-adv-x="508" 
d="M231 34q82 0 133 62q46 57 46 142q0 86 -34 140q-40 63 -122 63q-69 0 -116 -54v-334q40 -19 93 -19zM229 -11q-90 0 -143 36v695h52v-287q48 55 125 55q101 0 155 -76q47 -66 47 -172q0 -105 -66 -178t-170 -73z" />
    <glyph glyph-name="c" unicode="c" horiz-adv-x="433" 
d="M248 -11q-98 0 -154 78q-51 70 -51 172q0 104 52 173q57 76 158 76q83 0 142 -50l-27 -38q-51 43 -116 43q-79 0 -120 -64q-34 -54 -34 -138q0 -83 34 -139q41 -68 119 -68q73 0 122 43l23 -39q-58 -49 -148 -49z" />
    <glyph glyph-name="d" unicode="d" horiz-adv-x="510" 
d="M249 36q77 0 125 65v298q-46 44 -115 44q-79 0 -123 -64q-38 -57 -38 -139q0 -86 32 -139q39 -65 119 -65zM240 -11q-99 0 -152 78q-45 67 -45 171q0 102 54 173q60 77 159 77q73 0 118 -41v273h52v-630q0 -55 11 -90h-53q-7 32 -7 55q-51 -66 -137 -66z" />
    <glyph glyph-name="e" unicode="e" horiz-adv-x="477" 
d="M375 297q0 63 -34 104.5t-95 41.5q-60 0 -100 -44q-35 -40 -45 -102h274zM257 -11q-105 0 -162 77q-52 69 -52 177q0 100 51 169q57 76 154 76q93 0 140 -67q40 -58 40 -154q0 -6 -1 -13h-329v-11q0 -86 37 -142q43 -67 124 -67q78 0 138 45l22 -41q-66 -49 -162 -49z
" />
    <glyph glyph-name="f" unicode="f" horiz-adv-x="300" 
d="M104 435h-83v42h83v80q0 81 40.5 127.5t120.5 46.5q47 0 73 -13l-14 -46q-21 13 -61 13q-108 0 -108 -132v-76h124v-42h-124v-435h-51v435z" />
    <glyph glyph-name="g" unicode="g" horiz-adv-x="492" 
d="M233 -193q65 0 114 28q60 33 60 93q0 70 -86 85l-142 10q-81 -42 -81 -117q0 -52 44 -78q36 -21 91 -21zM237 205q54 0 87.5 33t33.5 87q0 55 -33.5 88.5t-88.5 33.5q-54 0 -87 -33.5t-33 -87.5q0 -55 33 -88t88 -33zM228 -233q-74 0 -123 29q-60 35 -60 103
q0 43 26.5 79t67.5 55v1q-49 20 -49 72q0 49 54 78v2q-81 44 -81 139q0 74 50 120q49 43 124 43q14 0 39.5 -5.5t28.5 -5.5h150v-42h-90q46 -48 46 -109q0 -74 -50 -118t-125 -44q-29 0 -53 7q-42 -20 -42 -53q0 -45 83 -52q138 -13 153 -17q83 -26 83 -114q0 -81 -79 -128
q-66 -40 -153 -40z" />
    <glyph glyph-name="h" unicode="h" horiz-adv-x="518" 
d="M86 720h52v-319q65 87 158 87q69 0 104 -40t35 -110v-338h-52v327q0 114 -98 114q-40 0 -82.5 -28.5t-64.5 -65.5v-347h-52v720z" />
    <glyph glyph-name="i" unicode="i" horiz-adv-x="235" 
d="M91 477h53v-477h-53v477zM117 577q-16 0 -27.5 12t-11.5 29t11.5 28.5t27.5 11.5q17 0 28.5 -11.5t11.5 -28.5t-11.5 -29t-28.5 -12z" />
    <glyph glyph-name="j" unicode="j" horiz-adv-x="229" 
d="M114 577q-17 0 -28.5 12t-11.5 29t11.5 28.5t28.5 11.5t28.5 -11.5t11.5 -28.5t-11.5 -29t-28.5 -12zM17 -229q-29 0 -43 7l9 44q15 -6 32 -6q74 0 74 122v539h52v-553q0 -153 -124 -153z" />
    <glyph glyph-name="k" unicode="k" horiz-adv-x="450" 
d="M86 720h52v-720h-52v720zM143 268l209 209h65l-211 -209l222 -268h-65z" />
    <glyph glyph-name="l" unicode="l" horiz-adv-x="230" 
d="M89 720h52v-720h-52v720z" />
    <glyph glyph-name="m" unicode="m" horiz-adv-x="782" 
d="M88 477h52v-75q65 86 149 86q101 0 122 -89q67 89 156 89q131 0 131 -150v-338h-52v327q0 114 -90 114q-77 0 -137 -87v-354h-52v327q0 114 -89 114q-40 0 -80 -30q-35 -26 -58 -64v-347h-52v477z" />
    <glyph glyph-name="n" unicode="n" horiz-adv-x="520" 
d="M88 477h52v-76q63 87 158 87q138 0 138 -150v-338h-52v327q0 114 -97 114q-41 0 -84 -30q-38 -26 -63 -64v-347h-52v477z" />
    <glyph glyph-name="o" unicode="o" horiz-adv-x="517" 
d="M258 34q80 0 124 64q38 56 38 140q0 83 -40 140q-46 65 -126 65q-79 0 -121 -64q-36 -55 -36 -139t38 -140q44 -66 123 -66zM257 -11q-102 0 -161 75q-54 69 -54 174q0 104 54 174q59 76 160 76t162 -75q57 -69 57 -173t-56 -174q-61 -77 -162 -77z" />
    <glyph glyph-name="p" unicode="p" horiz-adv-x="514" 
d="M255 34q79 0 123 65q38 57 38 139q0 84 -32 138q-40 65 -118 65q-74 0 -126 -65v-298q44 -44 115 -44zM88 477h52v-52q48 63 135 63q99 0 151 -77q45 -67 45 -171q0 -103 -54 -174q-59 -77 -159 -77q-71 0 -118 41v-249h-52v696z" />
    <glyph glyph-name="q" unicode="q" horiz-adv-x="510" 
d="M254 36q29 0 63.5 16t52.5 39v332q-40 20 -93 20q-82 0 -132 -62q-47 -57 -47 -142q0 -86 34 -140q40 -63 122 -63zM370 44q-48 -55 -124 -55q-101 0 -155 76q-48 67 -48 172t66 178t170 73q90 0 143 -35v-670h-52v261z" />
    <glyph glyph-name="r" unicode="r" horiz-adv-x="327" 
d="M88 477h52v-83q51 94 128 94q22 0 46 -8l-13 -49q-21 7 -39 7q-69 0 -122 -106v-332h-52v477z" />
    <glyph glyph-name="s" unicode="s" horiz-adv-x="393" 
d="M186 -12q-85 0 -145 46l23 40q49 -40 123 -40q44 0 73 18q34 22 34 64q0 48 -63 82q-58 28 -116 57q-63 41 -63 108q0 60 42 94q38 31 99 31q82 0 135 -44l-26 -38q-45 37 -110 37q-89 0 -89 -77q0 -48 63 -82q58 -28 117 -57q63 -40 63 -105q0 -66 -48 -102
q-44 -32 -112 -32z" />
    <glyph glyph-name="t" unicode="t" horiz-adv-x="330" 
d="M211 -11q-104 0 -104 118v328h-80v42h80v136h52v-136h123v-42h-123v-325q0 -76 58 -76q35 0 66 22l20 -39q-39 -28 -92 -28z" />
    <glyph glyph-name="u" unicode="u" horiz-adv-x="519" 
d="M222 -11q-139 0 -139 151v337h52v-326q0 -115 98 -115q40 0 83 29t63 66v346h52v-385q0 -60 9 -92h-53q-7 42 -7 78q-57 -89 -158 -89z" />
    <glyph glyph-name="v" unicode="v" horiz-adv-x="442" 
d="M17 477h56l149 -411l148 411h54l-178 -477h-48z" />
    <glyph glyph-name="w" unicode="w" horiz-adv-x="683" 
d="M19 477h56l116 -397l125 397h51l125 -398l117 398h52l-144 -477h-48l-129 402l-129 -402h-48z" />
    <glyph glyph-name="x" unicode="x" horiz-adv-x="442" 
d="M191 248l-158 229h60q29 -42 86 -126q13 -21 42 -62l124 188h56l-154 -226l172 -251h-59l-144 210l-137 -210h-56z" />
    <glyph glyph-name="y" unicode="y" horiz-adv-x="450" 
d="M53 -230q-27 0 -39 4l7 44q15 -3 33 -3q64 0 102 66q11 20 47 122l-179 474h57l150 -409l147 409h55l-205 -546q-30 -80 -60 -113q-43 -48 -115 -48z" />
    <glyph glyph-name="z" unicode="z" horiz-adv-x="410" 
d="M43 37l255 397h-240v43h303v-39l-257 -395h262v-43h-323v37z" />
    <glyph glyph-name="braceleft" unicode="{" horiz-adv-x="343" 
d="M239 -161q-48 0 -74 30t-26 78v206q0 51 -32.5 80.5t-77.5 30.5v42q45 0 77.5 30.5t32.5 80.5v196q0 48 26.5 77.5t73.5 29.5h77v-42q-80 0 -93 -5q-33 -12 -33 -75v-189q0 -48 -28 -80.5t-75 -41.5v-1q103 -25 103 -126v-202q0 -61 34 -73q11 -4 92 -4v-42h-77z" />
    <glyph glyph-name="bar" unicode="|" horiz-adv-x="282" 
d="M121 750h40v-1000h-40v1000z" />
    <glyph glyph-name="braceright" unicode="}" horiz-adv-x="343" 
d="M26 -119q81 0 93 4q34 13 34 76v201q0 101 103 121v2q-103 22 -103 125v191q0 61 -35 73q-11 4 -92 4v42h77q48 0 74.5 -30t26.5 -78v-195q0 -51 32 -80.5t78 -30.5v-42q-45 -1 -77.5 -30t-32.5 -81v-207q0 -48 -26.5 -77.5t-73.5 -29.5h-78v42z" />
    <glyph glyph-name="asciitilde" unicode="~" 
d="M356 268q-52 0 -111 37t-95 37q-48 0 -94 -43l-26 33q56 56 124 56q42 0 103 -36.5t103 -36.5q49 0 97 43l25 -33q-57 -57 -126 -57z" />
    <glyph glyph-name="exclamdown" unicode="&#xa1;" horiz-adv-x="260" 
d="M110 300h40l12 -486h-63zM130 401q-17 0 -29.5 13t-12.5 30q0 18 12 31t30 13t30.5 -13t12.5 -31q0 -17 -13 -30t-30 -13z" />
    <glyph glyph-name="cent" unicode="&#xa2;" horiz-adv-x="432" 
d="M221 -9q-87 12 -135 88q-42 66 -42 160q0 93 42 159q48 74 135 87v106h50v-103q73 -5 124 -50l-26 -38q-51 43 -116 43q-79 0 -120 -64q-34 -54 -34 -138q0 -83 34 -139q41 -68 119 -68q73 0 122 43l23 -39q-50 -41 -126 -48v-113h-50v114z" />
    <glyph glyph-name="sterling" unicode="&#xa3;" horiz-adv-x="454" 
d="M56 36q110 68 110 206q0 32 -4 66h-96v44h90q-12 105 -12 149q0 81 41.5 128.5t120.5 47.5q68 0 114 -34l-24 -40q-39 28 -97 28q-102 0 -102 -130q0 -35 12 -149h152v-44h-147q3 -47 3 -64q0 -54 -22 -110q-24 -61 -64 -89h272v-45h-347v36z" />
    <glyph glyph-name="yen" unicode="&#xa5;" horiz-adv-x="502" 
d="M226 100h-159v43h159v82h-159v44h150l-214 397h62l189 -360h2l190 360h55l-212 -397h151v-44h-160v-82h160v-43h-160v-100h-54v100z" />
    <glyph glyph-name="brokenbar" unicode="&#xa6;" horiz-adv-x="168" 
d="M63 750h40v-368h-40v368zM63 128h40v-378h-40v378z" />
    <glyph glyph-name="section" unicode="&#xa7;" horiz-adv-x="459" 
d="M294 120q39 36 39 85q0 48 -68 132q-51 61 -102 121q-38 -29 -38 -84q0 -48 67 -132zM208 -152q-65 0 -108 34l24 39q35 -27 85 -27q42 0 66 26.5t24 68.5q0 48 -59 119q-54 63 -108 127q-59 76 -59 138q0 70 64 121q-30 46 -30 92q0 62 40 103.5t101 41.5q66 0 109 -35
l-26 -40q-33 30 -84 30q-40 0 -65 -27.5t-25 -68.5q0 -47 59 -119q54 -64 109 -127q59 -77 59 -138q0 -66 -64 -123q30 -48 30 -90q0 -64 -39.5 -104.5t-102.5 -40.5z" />
    <glyph glyph-name="dieresis" unicode="&#xa8;" horiz-adv-x="500" 
d="M334 543q-16 0 -27.5 12t-11.5 29t11.5 28.5t27.5 11.5q17 0 29 -11.5t12 -28.5t-12 -29t-29 -12zM165 543q-16 0 -27.5 12t-11.5 29t11.5 28.5t27.5 11.5q17 0 28.5 -11.5t11.5 -28.5t-11.5 -29t-28.5 -12z" />
    <glyph glyph-name="copyright" unicode="&#xa9;" horiz-adv-x="859" 
d="M429 27q141 0 234.5 95.5t93.5 236.5t-93.5 237t-234.5 96q-140 0 -233 -96t-93 -237t92.5 -236.5t233.5 -95.5zM429 -12q-154 0 -261.5 108.5t-107.5 262.5t107.5 263t261.5 109t262 -109t108 -263t-108 -262.5t-262 -108.5zM436 124q-97 0 -162 68.5t-65 166.5
t64.5 167t162.5 69q81 0 137 -49l-28 -34q-45 40 -109 40q-78 0 -126.5 -56t-48.5 -135t49 -135q52 -59 129 -59q70 0 125 45l23 -37q-62 -51 -151 -51z" />
    <glyph glyph-name="ordfeminine" unicode="&#xaa;" horiz-adv-x="355" 
d="M146 355q54 0 90 46v89q-65 0 -96 -11q-54 -18 -54 -69q0 -25 17 -40t43 -15zM142 315q-43 0 -73 26t-30 68q0 117 197 117v33q0 78 -70 78q-50 0 -87 -34l-24 31q46 43 112 43q114 0 114 -112q0 -10 -1 -79q-2 -51 0 -83q2 -46 9 -80h-46q-3 18 -5 37q-39 -45 -96 -45z
" />
    <glyph glyph-name="guillemotleft" unicode="&#xab;" horiz-adv-x="453" 
d="M212 245l137 189h56l-137 -189l137 -188h-56zM49 245l138 189h55l-137 -189l137 -188h-55z" />
    <glyph glyph-name="logicalnot" unicode="&#xac;" horiz-adv-x="575" 
d="M473 246h-431v46h480v-250h-49v204z" />
    <glyph glyph-name="minus" unicode="&#xad;" 
d="M40 350h432v-45h-432v45z" />
    <glyph glyph-name="minus" unicode="&#x2212;" 
d="M40 350h432v-45h-432v45z" />
    <glyph glyph-name="registered" unicode="&#xae;" horiz-adv-x="503" 
d="M242 547q66 0 66 48q0 41 -59 41h-43v-89h36zM251 327q85 0 141 57t56 142t-56.5 142.5t-140.5 57.5t-139.5 -58t-55.5 -142q0 -85 55.5 -142t139.5 -57zM251 304q-92 0 -156.5 65t-64.5 157t64.5 157.5t156.5 65.5q93 0 157.5 -65t64.5 -158t-64.5 -157.5t-157.5 -64.5z
M167 667h108q73 0 73 -75q0 -39 -29 -59q-25 -17 -62 -17q8 -1 31 -23l81 -105h-45l-77 96q-24 30 -41 30v-126h-39v279z" />
    <glyph glyph-name="macron" unicode="&#xaf;" horiz-adv-x="500" 
d="M116 625h267v-44h-267v44z" />
    <glyph glyph-name="macron" unicode="&#x2c9;" horiz-adv-x="500" 
d="M116 625h267v-44h-267v44z" />
    <glyph glyph-name="degree" unicode="&#xb0;" horiz-adv-x="367" 
d="M194 375q104 0 104 131q0 56 -24 91q-29 41 -83 41q-102 0 -102 -130q0 -57 23 -91q27 -42 82 -42zM192 335q-74 0 -115 50q-37 46 -37 121t38.5 123.5t113.5 48.5q74 0 116 -50q39 -46 39 -120q0 -76 -38 -122q-42 -51 -117 -51z" />
    <glyph glyph-name="plusminus" unicode="&#xb1;" 
d="M234 112v193h-194v45h194v194h45v-194h193v-45h-193v-193h-45zM40 45h432v-45h-432v45z" />
    <glyph glyph-name="twosuperior" unicode="&#xb2;" horiz-adv-x="306" 
d="M31 367q80 71 103 96q65 70 65 116q0 55 -61 55q-42 0 -81 -33l-24 29q48 42 111 42q103 0 103 -88q0 -49 -54 -113q-28 -34 -93 -91h163v-38h-232v25z" />
    <glyph glyph-name="threesuperior" unicode="&#xb3;" horiz-adv-x="278" 
d="M91 337q-31 0 -63 8l9 37q21 -8 52 -8q97 0 97 63q0 62 -116 62v33q35 0 66 13q40 17 40 48q0 41 -58 41q-41 0 -74 -27l-20 28q43 37 103 37q96 0 96 -72q0 -59 -75 -78v-1q86 -11 86 -83q0 -54 -47 -80q-37 -21 -96 -21z" />
    <glyph glyph-name="acute" unicode="&#xb4;" horiz-adv-x="500" 
d="M249 662h78l-130 -122h-45z" />
    <glyph glyph-name="mu" unicode="&#xb5;" horiz-adv-x="518" 
d="M83 477h52v-336q0 -105 91 -105q86 0 153 94v347h52v-388q0 -54 8 -89h-53q-4 24 -7 77q-61 -88 -159 -88q-61 0 -87 38h-2q4 -43 4 -107v-137h-52v694z" />
    <glyph glyph-name="mu" unicode="&#x3bc;" horiz-adv-x="518" 
d="M83 477h52v-336q0 -105 91 -105q86 0 153 94v347h52v-388q0 -54 8 -89h-53q-4 24 -7 77q-61 -88 -159 -88q-61 0 -87 38h-2q4 -43 4 -107v-137h-52v694z" />
    <glyph glyph-name="paragraph" unicode="&#xb6;" horiz-adv-x="622" 
d="M260 282q-83 0 -137 54t-54 137q0 84 54 138.5t137 54.5h293v-45h-82v-798h-48v798h-114v-798h-49v459z" />
    <glyph glyph-name="periodcentered" unicode="&#xb7;" horiz-adv-x="190" 
d="M95 244q-19 0 -32 14t-13 33t13 32t32 13t32 -13t13 -32q0 -20 -13 -33.5t-32 -13.5z" />
    <glyph glyph-name="periodcentered" unicode="&#x2219;" horiz-adv-x="190" 
d="M95 244q-19 0 -32 14t-13 33t13 32t32 13t32 -13t13 -32q0 -20 -13 -33.5t-32 -13.5z" />
    <glyph glyph-name="cedilla" unicode="&#xb8;" horiz-adv-x="500" 
d="M212 -215q-38 0 -62 12l10 33q22 -11 51 -11q56 0 56 43q0 42 -73 42l37 99h38l-27 -74q29 -4 49.5 -21t20.5 -45q0 -39 -32 -60q-27 -18 -68 -18z" />
    <glyph glyph-name="onesuperior" unicode="&#xb9;" horiz-adv-x="227" 
d="M103 626l-74 -23l-11 36l95 27h36v-324h-46v284z" />
    <glyph glyph-name="ordmasculine" unicode="&#xba;" horiz-adv-x="381" 
d="M191 355q54 0 81 46q23 37 23 95q0 57 -24 96q-29 46 -83 46t-81 -45q-21 -37 -21 -95t23 -96q28 -47 82 -47zM189 315q-73 0 -115 55q-37 50 -37 126q0 77 37 127q41 55 115 55q73 0 116 -55q39 -50 39 -125q0 -77 -38 -127q-43 -56 -117 -56z" />
    <glyph glyph-name="guillemotright" unicode="&#xbb;" horiz-adv-x="453" 
d="M347 245l-137 190h56l138 -190l-138 -188h-56zM184 245l-136 190h55l138 -190l-138 -188h-55z" />
    <glyph glyph-name="onequarter" unicode="&#xbc;" horiz-adv-x="586" 
d="M471 109v154l-120 -154h120zM454 666h45l-408 -666h-45zM103 626l-74 -23l-11 36l95 27h36v-324h-46v284zM471 72h-172v32l173 220h43v-215h51v-37h-51v-72h-44v72z" />
    <glyph glyph-name="onehalf" unicode="&#xbd;" horiz-adv-x="624" 
d="M454 666h45l-408 -666h-45zM103 626l-74 -23l-11 36l95 27h36v-324h-46v284zM349 25q80 71 103 96q65 69 65 115q0 56 -61 56q-41 0 -80 -33l-24 29q46 41 111 41q102 0 102 -88q0 -48 -54 -112q-26 -31 -92 -92h162v-37h-232v25z" />
    <glyph glyph-name="threequarters" unicode="&#xbe;" horiz-adv-x="636" 
d="M522 109v154l-121 -154h121zM504 666h46l-408 -666h-45zM521 72h-171v32l173 220h43v-215h50v-37h-50v-72h-45v72zM91 337q-31 0 -63 8l9 37q21 -8 52 -8q97 0 97 63q0 62 -116 62v33q35 0 66 13q40 17 40 48q0 41 -58 41q-41 0 -74 -27l-20 28q43 37 103 37q96 0 96 -72
q0 -59 -75 -78v-1q86 -11 86 -83q0 -54 -47 -80q-37 -21 -96 -21z" />
    <glyph glyph-name="questiondown" unicode="&#xbf;" horiz-adv-x="387" 
d="M251 401q-17 0 -30 13t-13 30q0 18 12.5 31t30.5 13t30.5 -13t12.5 -31q0 -17 -13 -30t-30 -13zM238 -197q-85 0 -133 38q-53 42 -53 125q0 64 34 107q19 25 69 59q46 31 58.5 53t14.5 58q-1 -15 -1 60h50v-65q0 -65 -44 -106l-82 -62q-44 -39 -44 -101q0 -120 135 -120
q44 0 81 21l19 -42q-45 -25 -104 -25z" />
    <glyph glyph-name="Agrave" unicode="&#xc0;" horiz-adv-x="608" 
d="M152 835h78l97 -122h-46zM442 227l-140 374l-140 -374h280zM276 666h56l254 -666h-58l-68 180h-316l-67 -180h-55z" />
    <glyph glyph-name="Aacute" unicode="&#xc1;" horiz-adv-x="608" 
d="M378 835h78l-130 -122h-45zM442 227l-140 374l-140 -374h280zM276 666h56l254 -666h-58l-68 180h-316l-67 -180h-55z" />
    <glyph glyph-name="Acircumflex" unicode="&#xc2;" horiz-adv-x="608" 
d="M285 861h34l119 -147h-49l-88 94l-86 -94h-49zM442 227l-140 374l-140 -374h280zM276 666h56l254 -666h-58l-68 180h-316l-67 -180h-55z" />
    <glyph glyph-name="Atilde" unicode="&#xc3;" horiz-adv-x="608" 
d="M349 718q-23 0 -52.5 20.5t-46.5 20.5q-21 0 -54 -33l-27 27q40 53 85 53q23 0 52.5 -21t46.5 -21q30 0 55 34l28 -29q-42 -51 -87 -51zM442 227l-140 374l-140 -374h280zM276 666h56l254 -666h-58l-68 180h-316l-67 -180h-55z" />
    <glyph glyph-name="Adieresis" unicode="&#xc4;" horiz-adv-x="608" 
d="M386 716q-16 0 -27.5 12t-11.5 29t11.5 28.5t27.5 11.5q17 0 29 -11.5t12 -28.5t-12 -29t-29 -12zM217 716q-16 0 -27.5 12t-11.5 29t11.5 28.5t27.5 11.5q17 0 28.5 -11.5t11.5 -28.5t-11.5 -29t-28.5 -12zM442 227l-140 374l-140 -374h280zM276 666h56l254 -666h-58
l-68 180h-316l-67 -180h-55z" />
    <glyph glyph-name="Aring" unicode="&#xc5;" horiz-adv-x="608" 
d="M302 734q25 0 40 17.5t15 42.5t-15 42.5t-40 17.5t-40 -17t-15 -42t15 -43t40 -18zM302 703q-38 0 -64 26.5t-26 64.5t26 65t64 27t64 -26.5t26 -64.5t-26 -65t-64 -27zM442 227l-140 374l-140 -374h280zM276 666h56l254 -666h-58l-68 180h-316l-67 -180h-55z" />
    <glyph glyph-name="AE" unicode="&#xc6;" horiz-adv-x="816" 
d="M404 239v386l-221 -386h221zM373 666h377v-47h-292v-240h259v-47h-259v-285h299v-47h-353v192h-247l-110 -192h-59z" />
    <glyph glyph-name="Ccedilla" unicode="&#xc7;" horiz-adv-x="610" 
d="M322 -215q-38 0 -62 12l10 33q22 -11 51 -11q56 0 56 43q0 42 -73 42l32 87q-130 14 -208 114q-74 95 -74 229q0 144 89 243.5t232 99.5q103 0 178 -49l-28 -42q-64 45 -152 45q-120 0 -193 -89q-69 -83 -69 -206q0 -125 68 -209q74 -91 196 -91q98 0 167 58l27 -39
q-73 -66 -195 -66l-22 -60q29 -4 49.5 -21t20.5 -45q0 -39 -32 -60q-27 -18 -68 -18z" />
    <glyph glyph-name="Egrave" unicode="&#xc8;" horiz-adv-x="513" 
d="M119 835h78l97 -122h-46zM100 666h347v-47h-292v-240h259v-47h-259v-285h299v-47h-354v666z" />
    <glyph glyph-name="Eacute" unicode="&#xc9;" horiz-adv-x="513" 
d="M340 835h78l-130 -122h-45zM100 666h347v-47h-292v-240h259v-47h-259v-285h299v-47h-354v666z" />
    <glyph glyph-name="Ecircumflex" unicode="&#xca;" horiz-adv-x="513" 
d="M251 861h34l119 -147h-49l-88 94l-86 -94h-49zM100 666h347v-47h-292v-240h259v-47h-259v-285h299v-47h-354v666z" />
    <glyph glyph-name="Edieresis" unicode="&#xcb;" horiz-adv-x="513" 
d="M351 716q-16 0 -27.5 12t-11.5 29t11.5 28.5t27.5 11.5q17 0 29 -11.5t12 -28.5t-12 -29t-29 -12zM182 716q-16 0 -27.5 12t-11.5 29t11.5 28.5t27.5 11.5q17 0 28.5 -11.5t11.5 -28.5t-11.5 -29t-28.5 -12zM100 666h347v-47h-292v-240h259v-47h-259v-285h299v-47h-354
v666z" />
    <glyph glyph-name="Igrave" unicode="&#xcc;" horiz-adv-x="261" 
d="M-22 835h78l97 -122h-46zM103 666h55v-666h-55v666z" />
    <glyph glyph-name="Iacute" unicode="&#xcd;" horiz-adv-x="261" 
d="M207 835h78l-130 -122h-45zM103 666h55v-666h-55v666z" />
    <glyph glyph-name="Icircumflex" unicode="&#xce;" horiz-adv-x="261" 
d="M103 666h55v-666h-55v666zM115 861h34l119 -147h-49l-88 94l-86 -94h-49z" />
    <glyph glyph-name="Idieresis" unicode="&#xcf;" horiz-adv-x="261" 
d="M215 716q-16 0 -27.5 12t-11.5 29t11.5 28.5t27.5 11.5q17 0 29 -11.5t12 -28.5t-12 -29t-29 -12zM46 716q-16 0 -27.5 12t-11.5 29t11.5 28.5t27.5 11.5q17 0 28.5 -11.5t11.5 -28.5t-11.5 -29t-28.5 -12zM103 666h55v-666h-55v666z" />
    <glyph glyph-name="Eth" unicode="&#xd0;" horiz-adv-x="660" 
d="M251 46q147 0 228 71q85 75 85 220q0 283 -316 283h-88v-254h114v-43h-114v-277h91zM105 323h-72v43h72v300h145q168 0 264 -78q106 -85 106 -249q0 -166 -105 -256q-99 -83 -268 -83h-142v323z" />
    <glyph glyph-name="Ntilde" unicode="&#xd1;" horiz-adv-x="701" 
d="M397 718q-23 0 -52.5 20.5t-46.5 20.5q-21 0 -54 -33l-27 27q40 53 85 53q23 0 52.5 -21t46.5 -21q30 0 55 34l28 -29q-42 -51 -87 -51zM99 666h54l397 -575v575h52v-666h-51l-401 579v-579h-51v666z" />
    <glyph glyph-name="Ograve" unicode="&#xd2;" horiz-adv-x="750" 
d="M225 835h78l97 -122h-46zM375 35q121 0 195 90q69 84 69 207t-69 208q-74 91 -195 91t-195 -90q-69 -84 -69 -207q0 -124 69 -208q74 -91 195 -91zM375 -11q-144 0 -234 101q-87 97 -87 242t87 243q91 102 234 102q142 0 233 -101q88 -98 88 -242q0 -145 -87 -243
q-91 -102 -234 -102z" />
    <glyph glyph-name="Oacute" unicode="&#xd3;" horiz-adv-x="750" 
d="M447 835h78l-130 -122h-45zM375 35q121 0 195 90q69 84 69 207t-69 208q-74 91 -195 91t-195 -90q-69 -84 -69 -207q0 -124 69 -208q74 -91 195 -91zM375 -11q-144 0 -234 101q-87 97 -87 242t87 243q91 102 234 102q142 0 233 -101q88 -98 88 -242q0 -145 -87 -243
q-91 -102 -234 -102z" />
    <glyph glyph-name="Ocircumflex" unicode="&#xd4;" horiz-adv-x="750" 
d="M358 861h34l119 -147h-49l-88 94l-86 -94h-49zM375 35q121 0 195 90q69 84 69 207t-69 208q-74 91 -195 91t-195 -90q-69 -84 -69 -207q0 -124 69 -208q74 -91 195 -91zM375 -11q-144 0 -234 101q-87 97 -87 242t87 243q91 102 234 102q142 0 233 -101q88 -98 88 -242
q0 -145 -87 -243q-91 -102 -234 -102z" />
    <glyph glyph-name="Otilde" unicode="&#xd5;" horiz-adv-x="750" 
d="M421 718q-23 0 -52.5 20.5t-46.5 20.5q-21 0 -54 -33l-27 27q40 53 85 53q23 0 52.5 -21t46.5 -21q30 0 55 34l28 -29q-42 -51 -87 -51zM375 35q121 0 195 90q69 84 69 207t-69 208q-74 91 -195 91t-195 -90q-69 -84 -69 -207q0 -124 69 -208q74 -91 195 -91zM375 -11
q-144 0 -234 101q-87 97 -87 242t87 243q91 102 234 102q142 0 233 -101q88 -98 88 -242q0 -145 -87 -243q-91 -102 -234 -102z" />
    <glyph glyph-name="Odieresis" unicode="&#xd6;" horiz-adv-x="750" 
d="M458 716q-16 0 -27.5 12t-11.5 29t11.5 28.5t27.5 11.5q17 0 29 -11.5t12 -28.5t-12 -29t-29 -12zM289 716q-16 0 -27.5 12t-11.5 29t11.5 28.5t27.5 11.5q17 0 28.5 -11.5t11.5 -28.5t-11.5 -29t-28.5 -12zM375 35q121 0 195 90q69 84 69 207t-69 208q-74 91 -195 91
t-195 -90q-69 -84 -69 -207q0 -124 69 -208q74 -91 195 -91zM375 -11q-144 0 -234 101q-87 97 -87 242t87 243q91 102 234 102q142 0 233 -101q88 -98 88 -242q0 -145 -87 -243q-91 -102 -234 -102z" />
    <glyph glyph-name="Oslash" unicode="&#xd8;" horiz-adv-x="750" 
d="M375 35q121 0 195 90q69 84 69 207q0 133 -79 218l-317 -479q59 -36 132 -36zM531 577q-67 54 -156 54q-121 0 -195 -90q-69 -84 -69 -207q0 -154 101 -241zM124 -39l59 90q-129 100 -129 281q0 145 87 243q91 102 234 102q104 0 184 -57l64 97l33 -24l-66 -99
q106 -100 106 -260q0 -145 -87 -243q-91 -102 -234 -102q-90 0 -158 40l-61 -91z" />
    <glyph glyph-name="Ugrave" unicode="&#xd9;" horiz-adv-x="681" 
d="M191 835h78l97 -122h-46zM342 -11q-248 0 -248 261v416h55v-410q0 -219 195 -219q96 0 145 59q46 55 46 153v417h52v-414q0 -263 -245 -263z" />
    <glyph glyph-name="Uacute" unicode="&#xda;" horiz-adv-x="681" 
d="M413 835h78l-130 -122h-45zM342 -11q-248 0 -248 261v416h55v-410q0 -219 195 -219q96 0 145 59q46 55 46 153v417h52v-414q0 -263 -245 -263z" />
    <glyph glyph-name="Ucircumflex" unicode="&#xdb;" horiz-adv-x="681" 
d="M323 861h34l119 -147h-49l-88 94l-86 -94h-49zM342 -11q-248 0 -248 261v416h55v-410q0 -219 195 -219q96 0 145 59q46 55 46 153v417h52v-414q0 -263 -245 -263z" />
    <glyph glyph-name="Udieresis" unicode="&#xdc;" horiz-adv-x="681" 
d="M424 716q-16 0 -27.5 12t-11.5 29t11.5 28.5t27.5 11.5q17 0 29 -11.5t12 -28.5t-12 -29t-29 -12zM255 716q-16 0 -27.5 12t-11.5 29t11.5 28.5t27.5 11.5q17 0 28.5 -11.5t11.5 -28.5t-11.5 -29t-28.5 -12zM342 -11q-248 0 -248 261v416h55v-410q0 -219 195 -219
q96 0 145 59q46 55 46 153v417h52v-414q0 -263 -245 -263z" />
    <glyph glyph-name="Yacute" unicode="&#xdd;" horiz-adv-x="537" 
d="M341 835h78l-130 -122h-45zM243 251l-223 415h62l189 -360h2l189 360h56l-221 -415v-251h-54v251z" />
    <glyph glyph-name="Thorn" unicode="&#xde;" horiz-adv-x="514" 
d="M238 211q179 0 179 147q0 142 -177 142h-85v-289h83zM100 666h55v-119h90q99 0 159 -43q69 -49 69 -145q0 -100 -69 -151q-61 -44 -165 -44h-84v-164h-55v666z" />
    <glyph glyph-name="germandbls" unicode="&#xdf;" horiz-adv-x="532" 
d="M325 -12q-73 0 -118 36l24 41q39 -31 96 -31q43 0 72 19q33 23 33 64q0 45 -54 80q-51 29 -102 57q-54 39 -54 93q0 53 44 90l80 58q44 36 44 87q0 103 -112 103q-72 0 -107 -62q-29 -51 -29 -128v-495h-52v499q0 97 45 160q52 72 145 72q69 0 114 -37q48 -40 48 -108
q0 -64 -44 -106q-41 -29 -82 -59q-44 -31 -44 -69t55 -71q51 -30 103 -60q55 -41 55 -99q0 -66 -48 -102q-44 -32 -112 -32z" />
    <glyph glyph-name="agrave" unicode="&#xe0;" horiz-adv-x="458" 
d="M72 662h78l97 -122h-46zM188 34q79 0 134 72v128h-26q-77 0 -126 -22q-68 -31 -68 -98q0 -36 25 -58t61 -22zM181 -11q-59 0 -96 32.5t-37 90.5q0 163 274 163v54q0 113 -105 113q-69 0 -124 -51l-28 36q64 61 156 61q153 0 153 -152v-240q0 -66 10 -96h-52q-4 23 -7 60
q-55 -71 -144 -71z" />
    <glyph glyph-name="aacute" unicode="&#xe1;" horiz-adv-x="458" 
d="M293 662h78l-130 -122h-45zM188 34q79 0 134 72v128h-26q-77 0 -126 -22q-68 -31 -68 -98q0 -36 25 -58t61 -22zM181 -11q-59 0 -96 32.5t-37 90.5q0 163 274 163v54q0 113 -105 113q-69 0 -124 -51l-28 36q64 61 156 61q153 0 153 -152v-240q0 -66 10 -96h-52
q-4 23 -7 60q-55 -71 -144 -71z" />
    <glyph glyph-name="acircumflex" unicode="&#xe2;" horiz-adv-x="458" 
d="M204 688h34l119 -147h-49l-88 94l-86 -94h-49zM188 34q79 0 134 72v128h-26q-77 0 -126 -22q-68 -31 -68 -98q0 -36 25 -58t61 -22zM181 -11q-59 0 -96 32.5t-37 90.5q0 163 274 163v54q0 113 -105 113q-69 0 -124 -51l-28 36q64 61 156 61q153 0 153 -152v-240
q0 -66 10 -96h-52q-4 23 -7 60q-55 -71 -144 -71z" />
    <glyph glyph-name="atilde" unicode="&#xe3;" horiz-adv-x="458" 
d="M268 545q-23 0 -52.5 20.5t-46.5 20.5q-21 0 -54 -33l-27 27q40 53 85 53q23 0 52.5 -21t46.5 -21q30 0 55 34l28 -29q-42 -51 -87 -51zM188 34q79 0 134 72v128h-26q-77 0 -126 -22q-68 -31 -68 -98q0 -36 25 -58t61 -22zM181 -11q-59 0 -96 32.5t-37 90.5
q0 163 274 163v54q0 113 -105 113q-69 0 -124 -51l-28 36q64 61 156 61q153 0 153 -152v-240q0 -66 10 -96h-52q-4 23 -7 60q-55 -71 -144 -71z" />
    <glyph glyph-name="adieresis" unicode="&#xe4;" horiz-adv-x="458" 
d="M305 543q-16 0 -27.5 12t-11.5 29t11.5 28.5t27.5 11.5q17 0 29 -11.5t12 -28.5t-12 -29t-29 -12zM136 543q-16 0 -27.5 12t-11.5 29t11.5 28.5t27.5 11.5q17 0 28.5 -11.5t11.5 -28.5t-11.5 -29t-28.5 -12zM188 34q79 0 134 72v128h-26q-77 0 -126 -22q-68 -31 -68 -98
q0 -36 25 -58t61 -22zM181 -11q-59 0 -96 32.5t-37 90.5q0 163 274 163v54q0 113 -105 113q-69 0 -124 -51l-28 36q64 61 156 61q153 0 153 -152v-240q0 -66 10 -96h-52q-4 23 -7 60q-55 -71 -144 -71z" />
    <glyph glyph-name="aring" unicode="&#xe5;" horiz-adv-x="458" 
d="M221 573q25 0 40 17.5t15 42.5t-15 42.5t-40 17.5t-40 -17t-15 -42t15 -43t40 -18zM221 542q-38 0 -64 26.5t-26 64.5t26 65t64 27t64 -26.5t26 -64.5t-26 -65t-64 -27zM188 34q79 0 134 72v128h-26q-77 0 -126 -22q-68 -31 -68 -98q0 -36 25 -58t61 -22zM181 -11
q-59 0 -96 32.5t-37 90.5q0 163 274 163v54q0 113 -105 113q-69 0 -124 -51l-28 36q64 61 156 61q153 0 153 -152v-240q0 -66 10 -96h-52q-4 23 -7 60q-55 -71 -144 -71z" />
    <glyph glyph-name="ae" unicode="&#xe6;" horiz-adv-x="754" 
d="M653 297q0 63 -34 104.5t-95 41.5t-100 -44q-34 -38 -45 -102h274zM188 34q94 0 153 91q-18 46 -20 109h-25q-77 0 -126 -22q-68 -31 -68 -98q0 -36 25 -58t61 -22zM181 -11q-59 0 -96 32.5t-37 90.5q0 163 275 163v54q0 113 -106 113q-67 0 -124 -51l-28 36
q64 61 156 61q119 0 142 -98q52 98 163 98q92 0 139 -67q41 -58 41 -153q0 -7 -1 -14h-329v-11q0 -86 36 -142q43 -67 124 -67q79 0 139 45l22 -41q-66 -49 -163 -49q-118 0 -175 99q-70 -99 -178 -99z" />
    <glyph glyph-name="ccedilla" unicode="&#xe7;" horiz-adv-x="433" 
d="M202 -215q-38 0 -62 12l10 33q22 -11 51 -11q56 0 56 43q0 42 -73 42l32 88q-85 12 -132 89q-41 67 -41 158q0 104 52 173q57 76 158 76q83 0 142 -50l-27 -38q-51 43 -116 43q-79 0 -120 -64q-34 -54 -34 -138q0 -83 34 -139q41 -68 119 -68q73 0 122 43l23 -39
q-54 -46 -142 -49l-22 -60q29 -4 49.5 -21t20.5 -45q0 -39 -32 -60q-27 -18 -68 -18z" />
    <glyph glyph-name="egrave" unicode="&#xe8;" horiz-adv-x="477" 
d="M97 662h78l97 -122h-46zM375 297q0 63 -34 104.5t-95 41.5q-60 0 -100 -44q-35 -40 -45 -102h274zM257 -11q-105 0 -162 77q-52 69 -52 177q0 100 51 169q57 76 154 76q93 0 140 -67q40 -58 40 -154q0 -6 -1 -13h-329v-11q0 -86 37 -142q43 -67 124 -67q78 0 138 45
l22 -41q-66 -49 -162 -49z" />
    <glyph glyph-name="eacute" unicode="&#xe9;" horiz-adv-x="477" 
d="M318 662h78l-130 -122h-45zM375 297q0 63 -34 104.5t-95 41.5q-60 0 -100 -44q-35 -40 -45 -102h274zM257 -11q-105 0 -162 77q-52 69 -52 177q0 100 51 169q57 76 154 76q93 0 140 -67q40 -58 40 -154q0 -6 -1 -13h-329v-11q0 -86 37 -142q43 -67 124 -67q78 0 138 45
l22 -41q-66 -49 -162 -49z" />
    <glyph glyph-name="ecircumflex" unicode="&#xea;" horiz-adv-x="477" 
d="M229 688h34l119 -147h-49l-88 94l-86 -94h-49zM375 297q0 63 -34 104.5t-95 41.5q-60 0 -100 -44q-35 -40 -45 -102h274zM257 -11q-105 0 -162 77q-52 69 -52 177q0 100 51 169q57 76 154 76q93 0 140 -67q40 -58 40 -154q0 -6 -1 -13h-329v-11q0 -86 37 -142
q43 -67 124 -67q78 0 138 45l22 -41q-66 -49 -162 -49z" />
    <glyph glyph-name="edieresis" unicode="&#xeb;" horiz-adv-x="477" 
d="M330 543q-16 0 -27.5 12t-11.5 29t11.5 28.5t27.5 11.5q17 0 29 -11.5t12 -28.5t-12 -29t-29 -12zM161 543q-16 0 -27.5 12t-11.5 29t11.5 28.5t27.5 11.5q17 0 28.5 -11.5t11.5 -28.5t-11.5 -29t-28.5 -12zM375 297q0 63 -34 104.5t-95 41.5q-60 0 -100 -44
q-35 -40 -45 -102h274zM257 -11q-105 0 -162 77q-52 69 -52 177q0 100 51 169q57 76 154 76q93 0 140 -67q40 -58 40 -154q0 -6 -1 -13h-329v-11q0 -86 37 -142q43 -67 124 -67q78 0 138 45l22 -41q-66 -49 -162 -49z" />
    <glyph glyph-name="igrave" unicode="&#xec;" horiz-adv-x="235" 
d="M-36 662h78l97 -122h-46zM91 477h53v-477h-53v477z" />
    <glyph glyph-name="iacute" unicode="&#xed;" horiz-adv-x="235" 
d="M193 662h78l-130 -122h-45zM91 477h53v-477h-53v477z" />
    <glyph glyph-name="icircumflex" unicode="&#xee;" horiz-adv-x="235" 
d="M91 477h53v-477h-53v477zM101 688h34l119 -147h-49l-88 94l-86 -94h-49z" />
    <glyph glyph-name="idieresis" unicode="&#xef;" horiz-adv-x="235" 
d="M202 543q-16 0 -27.5 12t-11.5 29t11.5 28.5t27.5 11.5q17 0 29 -11.5t12 -28.5t-12 -29t-29 -12zM33 543q-16 0 -27.5 12t-11.5 29t11.5 28.5t27.5 11.5q17 0 28.5 -11.5t11.5 -28.5t-11.5 -29t-28.5 -12zM91 477h53v-477h-53v477z" />
    <glyph glyph-name="eth" unicode="&#xf0;" horiz-adv-x="533" 
d="M262 34q172 0 172 304q-66 101 -180 101q-78 0 -120 -63q-36 -55 -36 -137q0 -83 40 -140q45 -65 124 -65zM259 -11q-99 0 -159 76q-56 71 -56 172q0 105 54 173q58 75 160 75q107 0 169 -82q-22 152 -124 224l-86 -71l-28 32l75 62q-70 37 -171 37l10 44q116 0 202 -47
l71 59l27 -33l-61 -50q146 -111 146 -346q0 -128 -50 -216q-61 -109 -179 -109z" />
    <glyph glyph-name="ntilde" unicode="&#xf1;" horiz-adv-x="520" 
d="M303 545q-23 0 -52.5 20.5t-46.5 20.5q-21 0 -54 -33l-27 27q40 53 85 53q23 0 52.5 -21t46.5 -21q30 0 55 34l28 -29q-42 -51 -87 -51zM88 477h52v-76q63 87 158 87q138 0 138 -150v-338h-52v327q0 114 -97 114q-41 0 -84 -30q-38 -26 -63 -64v-347h-52v477z" />
    <glyph glyph-name="ograve" unicode="&#xf2;" horiz-adv-x="517" 
d="M109 662h78l97 -122h-46zM258 34q80 0 124 64q38 56 38 140q0 83 -40 140q-46 65 -126 65q-79 0 -121 -64q-36 -55 -36 -139t38 -140q44 -66 123 -66zM257 -11q-102 0 -161 75q-54 69 -54 174q0 104 54 174q59 76 160 76t162 -75q57 -69 57 -173t-56 -174
q-61 -77 -162 -77z" />
    <glyph glyph-name="oacute" unicode="&#xf3;" horiz-adv-x="517" 
d="M330 662h78l-130 -122h-45zM258 34q80 0 124 64q38 56 38 140q0 83 -40 140q-46 65 -126 65q-79 0 -121 -64q-36 -55 -36 -139t38 -140q44 -66 123 -66zM257 -11q-102 0 -161 75q-54 69 -54 174q0 104 54 174q59 76 160 76t162 -75q57 -69 57 -173t-56 -174
q-61 -77 -162 -77z" />
    <glyph glyph-name="ocircumflex" unicode="&#xf4;" horiz-adv-x="517" 
d="M241 688h34l119 -147h-49l-88 94l-86 -94h-49zM258 34q80 0 124 64q38 56 38 140q0 83 -40 140q-46 65 -126 65q-79 0 -121 -64q-36 -55 -36 -139t38 -140q44 -66 123 -66zM257 -11q-102 0 -161 75q-54 69 -54 174q0 104 54 174q59 76 160 76t162 -75q57 -69 57 -173
t-56 -174q-61 -77 -162 -77z" />
    <glyph glyph-name="otilde" unicode="&#xf5;" horiz-adv-x="517" 
d="M305 545q-23 0 -52.5 20.5t-46.5 20.5q-21 0 -54 -33l-27 27q40 53 85 53q23 0 52.5 -21t46.5 -21q30 0 55 34l28 -29q-42 -51 -87 -51zM258 34q80 0 124 64q38 56 38 140q0 83 -40 140q-46 65 -126 65q-79 0 -121 -64q-36 -55 -36 -139t38 -140q44 -66 123 -66zM257 -11
q-102 0 -161 75q-54 69 -54 174q0 104 54 174q59 76 160 76t162 -75q57 -69 57 -173t-56 -174q-61 -77 -162 -77z" />
    <glyph glyph-name="odieresis" unicode="&#xf6;" horiz-adv-x="517" 
d="M342 543q-16 0 -27.5 12t-11.5 29t11.5 28.5t27.5 11.5q17 0 29 -11.5t12 -28.5t-12 -29t-29 -12zM173 543q-16 0 -27.5 12t-11.5 29t11.5 28.5t27.5 11.5q17 0 28.5 -11.5t11.5 -28.5t-11.5 -29t-28.5 -12zM258 34q80 0 124 64q38 56 38 140q0 83 -40 140
q-46 65 -126 65q-79 0 -121 -64q-36 -55 -36 -139t38 -140q44 -66 123 -66zM257 -11q-102 0 -161 75q-54 69 -54 174q0 104 54 174q59 76 160 76t162 -75q57 -69 57 -173t-56 -174q-61 -77 -162 -77z" />
    <glyph glyph-name="divide" unicode="&#xf7;" 
d="M254 450q-18 0 -30 12.5t-12 30.5q0 17 12.5 29.5t29.5 12.5t29.5 -12.5t12.5 -29.5q0 -18 -12 -30.5t-30 -12.5zM254 120q-17 0 -29.5 12.5t-12.5 29.5t12.5 29.5t29.5 12.5t29.5 -12.5t12.5 -29.5t-12.5 -29.5t-29.5 -12.5zM40 350h432v-45h-432v45z" />
    <glyph glyph-name="oslash" unicode="&#xf8;" horiz-adv-x="517" 
d="M345 416q-37 28 -91 28q-79 0 -122 -65q-36 -55 -36 -139q0 -87 39 -144zM258 33q80 0 124 65q39 56 39 140q0 94 -48 152l-213 -322q38 -35 98 -35zM51 -30l55 83q-64 70 -64 185q0 104 54 174q59 76 160 76q66 0 115 -32l59 89l32 -21l-61 -92q74 -72 74 -192
q0 -104 -56 -174q-61 -77 -162 -77q-74 0 -123 39l-52 -79z" />
    <glyph glyph-name="ugrave" unicode="&#xf9;" horiz-adv-x="519" 
d="M111 662h78l97 -122h-46zM222 -11q-139 0 -139 151v337h52v-326q0 -115 98 -115q40 0 83 29t63 66v346h52v-385q0 -60 9 -92h-53q-7 42 -7 78q-57 -89 -158 -89z" />
    <glyph glyph-name="uacute" unicode="&#xfa;" horiz-adv-x="519" 
d="M332 662h78l-130 -122h-45zM222 -11q-139 0 -139 151v337h52v-326q0 -115 98 -115q40 0 83 29t63 66v346h52v-385q0 -60 9 -92h-53q-7 42 -7 78q-57 -89 -158 -89z" />
    <glyph glyph-name="ucircumflex" unicode="&#xfb;" horiz-adv-x="519" 
d="M243 688h34l119 -147h-49l-88 94l-86 -94h-49zM222 -11q-139 0 -139 151v337h52v-326q0 -115 98 -115q40 0 83 29t63 66v346h52v-385q0 -60 9 -92h-53q-7 42 -7 78q-57 -89 -158 -89z" />
    <glyph glyph-name="udieresis" unicode="&#xfc;" horiz-adv-x="519" 
d="M343 543q-16 0 -27.5 12t-11.5 29t11.5 28.5t27.5 11.5q17 0 29 -11.5t12 -28.5t-12 -29t-29 -12zM174 543q-16 0 -27.5 12t-11.5 29t11.5 28.5t27.5 11.5q17 0 28.5 -11.5t11.5 -28.5t-11.5 -29t-28.5 -12zM222 -11q-139 0 -139 151v337h52v-326q0 -115 98 -115
q40 0 83 29t63 66v346h52v-385q0 -60 9 -92h-53q-7 42 -7 78q-57 -89 -158 -89z" />
    <glyph glyph-name="thorn" unicode="&#xfe;" horiz-adv-x="514" 
d="M255 34q79 0 123 65q38 57 38 139q0 84 -32 138q-40 65 -118 65q-76 0 -126 -65v-298q44 -44 115 -44zM88 720h52v-295q50 63 135 63q99 0 151 -77q45 -67 45 -171q0 -103 -54 -174q-59 -77 -159 -77q-75 0 -118 41v-249h-52v939z" />
    <glyph glyph-name="ydieresis" unicode="&#xff;" horiz-adv-x="450" 
d="M313 543q-16 0 -27.5 12t-11.5 29t11.5 28.5t27.5 11.5q17 0 29 -11.5t12 -28.5t-12 -29t-29 -12zM144 543q-16 0 -27.5 12t-11.5 29t11.5 28.5t27.5 11.5q17 0 28.5 -11.5t11.5 -28.5t-11.5 -29t-28.5 -12zM53 -230q-27 0 -39 4l7 44q15 -3 33 -3q64 0 102 66
q11 20 47 122l-179 474h57l150 -409l147 409h55l-205 -546q-30 -80 -60 -113q-43 -48 -115 -48z" />
    <glyph glyph-name="dotlessi" unicode="&#x131;" horiz-adv-x="235" 
d="M91 477h53v-477h-53v477z" />
    <glyph glyph-name="Lslash" unicode="&#x141;" horiz-adv-x="471" 
d="M110 302l-83 -68l-25 31l108 89v312h54v-269l108 89l26 -32l-134 -109v-298h267v-47h-321v302z" />
    <glyph glyph-name="lslash" unicode="&#x142;" horiz-adv-x="255" 
d="M97 295l-70 -63v55l70 63v370h52v-326l78 70v-55l-78 -70v-339h-52v295z" />
    <glyph glyph-name="OE" unicode="&#x152;" horiz-adv-x="887" 
d="M374 35q57 0 100 16v564q-46 16 -99 16q-121 0 -195 -90q-69 -84 -69 -207q0 -124 68 -208q74 -91 195 -91zM376 -11q-144 0 -234 101q-88 97 -88 242t87 243q90 102 234 102q27 0 53 -3q5 -1 23 -5q15 -3 23 -3h347v-47h-292v-240h259v-47h-259v-285h299v-47h-354
q-7 0 -22 -3q-18 -4 -23 -5q-26 -3 -53 -3z" />
    <glyph glyph-name="oe" unicode="&#x153;" horiz-adv-x="853" 
d="M752 297q0 62 -34.5 104t-95.5 42q-60 0 -99 -44q-35 -39 -45 -102h274zM258 34q80 0 124 64q38 56 38 140q0 83 -40 140q-46 65 -126 65q-79 0 -121 -64q-36 -55 -36 -139t38 -140q44 -66 123 -66zM257 -11q-102 0 -161 75q-54 69 -54 174q0 104 54 174q59 76 160 76
q141 0 190 -132q21 61 68 96.5t110 35.5q93 0 139 -67q41 -58 41 -154q0 -6 -1 -13h-329v-11q0 -86 37 -142q43 -67 124 -67q78 0 138 45l23 -41q-66 -49 -163 -49q-140 0 -186 133q-52 -133 -190 -133z" />
    <glyph glyph-name="Scaron" unicode="&#x160;" horiz-adv-x="490" 
d="M113 859h49l88 -95l86 95h49l-120 -147h-33zM231 -11q-114 0 -187 67l30 38q66 -59 160 -59q60 0 103 33q47 36 47 95q0 73 -82 124q-76 43 -153 85q-82 57 -82 144q0 76 56 120q51 41 129 41q102 0 169 -52l-27 -40q-62 46 -143 46q-55 0 -91 -28q-39 -30 -39 -84
q0 -68 82 -118l154 -86q82 -59 82 -150q0 -84 -64 -132q-58 -44 -144 -44z" />
    <glyph glyph-name="scaron" unicode="&#x161;" horiz-adv-x="393" 
d="M57 686h49l88 -95l86 95h49l-120 -147h-33zM186 -12q-85 0 -145 46l23 40q49 -40 123 -40q44 0 73 18q34 22 34 64q0 48 -63 82q-58 28 -116 57q-63 41 -63 108q0 60 42 94q38 31 99 31q82 0 135 -44l-26 -38q-45 37 -110 37q-89 0 -89 -77q0 -48 63 -82q58 -28 117 -57
q63 -40 63 -105q0 -66 -48 -102q-44 -32 -112 -32z" />
    <glyph glyph-name="Ydieresis" unicode="&#x178;" horiz-adv-x="537" 
d="M352 716q-16 0 -27.5 12t-11.5 29t11.5 28.5t27.5 11.5q17 0 29 -11.5t12 -28.5t-12 -29t-29 -12zM183 716q-16 0 -27.5 12t-11.5 29t11.5 28.5t27.5 11.5q17 0 28.5 -11.5t11.5 -28.5t-11.5 -29t-28.5 -12zM243 251l-223 415h62l189 -360h2l189 360h56l-221 -415v-251
h-54v251z" />
    <glyph glyph-name="Zcaron" unicode="&#x17d;" horiz-adv-x="557" 
d="M145 859h49l88 -95l86 95h49l-120 -147h-33zM46 42l384 578h-365v46h430v-37l-390 -583h403v-46h-462v42z" />
    <glyph glyph-name="zcaron" unicode="&#x17e;" horiz-adv-x="410" 
d="M73 686h49l88 -95l86 95h49l-120 -147h-33zM43 37l255 397h-240v43h303v-39l-257 -395h262v-43h-323v37z" />
    <glyph glyph-name="florin" unicode="&#x192;" horiz-adv-x="432" 
d="M18 -188q-47 0 -79 21l19 42q23 -17 57 -17q110 0 127 148l42 374h-102l5 42h102q14 131 16 141q14 79 49 118q44 50 128 50q64 0 101 -32l-22 -41q-30 27 -85 27q-107 0 -124 -148l-13 -115h110l-6 -42h-108l-44 -380q-22 -188 -173 -188z" />
    <glyph glyph-name="circumflex" unicode="&#x2c6;" horiz-adv-x="500" 
d="M233 688h34l119 -147h-49l-88 94l-86 -94h-49z" />
    <glyph glyph-name="caron" unicode="&#x2c7;" horiz-adv-x="500" 
d="M114 686h49l88 -95l86 95h49l-120 -147h-33z" />
    <glyph glyph-name="breve" unicode="&#x2d8;" horiz-adv-x="500" 
d="M250 538q-57 0 -94 42q-34 38 -40 97h46q4 -40 26 -66q24 -30 62 -30q39 0 62 30q20 25 25 66h46q-6 -59 -39 -97q-37 -42 -94 -42z" />
    <glyph glyph-name="dotaccent" unicode="&#x2d9;" horiz-adv-x="500" 
d="M250 575q-18 0 -30 12.5t-12 30.5t12 30.5t30 12.5t30 -12.5t12 -30.5t-12 -30.5t-30 -12.5z" />
    <glyph glyph-name="ring" unicode="&#x2da;" horiz-adv-x="500" 
d="M250 573q25 0 40 17.5t15 42.5t-15 42.5t-40 17.5t-40 -17t-15 -42t15 -43t40 -18zM250 542q-38 0 -64 26.5t-26 64.5t26 65t64 27t64 -26.5t26 -64.5t-26 -65t-64 -27z" />
    <glyph glyph-name="ogonek" unicode="&#x2db;" horiz-adv-x="500" 
d="M266 -215q-41 0 -65 24t-24 65q0 65 61 126h39q-29 -40 -38 -57q-17 -32 -17 -65q0 -54 51 -54q25 0 47 10l10 -32q-27 -17 -64 -17z" />
    <glyph glyph-name="tilde" unicode="&#x2dc;" horiz-adv-x="500" 
d="M297 545q-23 0 -52.5 20.5t-46.5 20.5q-21 0 -54 -33l-27 27q40 53 85 53q23 0 52.5 -21t46.5 -21q30 0 55 34l28 -29q-42 -51 -87 -51z" />
    <glyph glyph-name="hungarumlaut" unicode="&#x2dd;" horiz-adv-x="500" 
d="M348 662h76l-128 -122h-46zM197 662h76l-128 -122h-46z" />
    <glyph glyph-name="Delta" unicode="&#x394;" horiz-adv-x="600" 
d="M519 47l-220 652l-222 -652h442zM20 39l252 721h56l252 -721v-39h-560v39z" />
    <glyph glyph-name="Delta" unicode="&#x2206;" horiz-adv-x="600" 
d="M519 47l-220 652l-222 -652h442zM20 39l252 721h56l252 -721v-39h-560v39z" />
    <glyph glyph-name="Omega" unicode="&#x3a9;" horiz-adv-x="730" 
d="M62 47h149q-71 43 -112 132q-39 82 -39 171q0 133 85 228q88 99 220 99t220 -98q84 -95 84 -229q0 -89 -38 -171q-42 -88 -113 -132h150v-47h-216v46q160 100 160 304q0 109 -68 193q-72 88 -179 88q-108 0 -180 -88q-68 -83 -68 -193q0 -204 162 -304v-46h-217v47z" />
    <glyph glyph-name="Omega" unicode="&#x2126;" horiz-adv-x="730" 
d="M62 47h149q-71 43 -112 132q-39 82 -39 171q0 133 85 228q88 99 220 99t220 -98q84 -95 84 -229q0 -89 -38 -171q-42 -88 -113 -132h150v-47h-216v46q160 100 160 304q0 109 -68 193q-72 88 -179 88q-108 0 -180 -88q-68 -83 -68 -193q0 -204 162 -304v-46h-217v47z" />
    <glyph glyph-name="pi" unicode="&#x3c0;" horiz-adv-x="588" 
d="M459 -11q-84 0 -84 108v338h-196q0 -229 -30 -435h-53q33 240 33 435h-101v42h514v-42h-115v-335q0 -66 38 -66q17 0 38 15l19 -38q-28 -22 -63 -22z" />
    <glyph glyph-name="endash" unicode="&#x2013;" 
d="M40 350h432v-45h-432v45z" />
    <glyph glyph-name="emdash" unicode="&#x2014;" 
d="M40 350h432v-45h-432v45z" />
    <glyph glyph-name="quoteleft" unicode="&#x2018;" horiz-adv-x="179" 
d="M82 474q-20 0 -31.5 14.5t-11.5 34.5q0 70 91 153l23 -18q-49 -52 -49 -84q0 -11 9.5 -28.5t9.5 -30.5q0 -17 -12 -29t-29 -12z" />
    <glyph glyph-name="quoteright" unicode="&#x2019;" horiz-adv-x="179" 
d="M97 674q20 0 31.5 -14.5t11.5 -34.5q0 -39 -30 -85q-25 -38 -61 -68l-23 18q49 52 49 84q0 11 -9.5 28.5t-9.5 30.5q0 17 12 29t29 12z" />
    <glyph glyph-name="quotesinglbase" unicode="&#x201a;" horiz-adv-x="179" 
d="M97 79q20 0 31.5 -14.5t11.5 -34.5q0 -39 -30 -85q-25 -38 -61 -68l-23 18q49 52 49 84q0 11 -9.5 28.5t-9.5 30.5q0 17 12 29t29 12z" />
    <glyph glyph-name="quotedblleft" unicode="&#x201c;" horiz-adv-x="324" 
d="M227 474q-20 0 -31.5 14.5t-11.5 34.5q0 70 91 153l23 -18q-49 -52 -49 -84q0 -11 9.5 -28.5t9.5 -30.5q0 -17 -12 -29t-29 -12zM82 474q-20 0 -31.5 14.5t-11.5 34.5q0 70 91 153l23 -18q-49 -52 -49 -84q0 -11 9.5 -28.5t9.5 -30.5q0 -17 -12 -29t-29 -12z" />
    <glyph glyph-name="quotedblright" unicode="&#x201d;" horiz-adv-x="324" 
d="M242 674q20 0 31.5 -14.5t11.5 -34.5q0 -39 -30 -85q-25 -38 -61 -68l-23 18q49 52 49 84q0 11 -9.5 28.5t-9.5 30.5q0 17 12 29t29 12zM97 674q20 0 31.5 -14.5t11.5 -34.5q0 -39 -30 -85q-25 -38 -61 -68l-23 18q49 52 49 84q0 11 -9.5 28.5t-9.5 30.5q0 17 12 29
t29 12z" />
    <glyph glyph-name="quotedblbase" unicode="&#x201e;" horiz-adv-x="324" 
d="M242 79q20 0 31.5 -14.5t11.5 -34.5q0 -39 -30 -85q-25 -38 -61 -68l-23 18q49 52 49 84q0 11 -9.5 28.5t-9.5 30.5q0 17 12 29t29 12zM97 79q20 0 31.5 -14.5t11.5 -34.5q0 -39 -30 -85q-25 -38 -61 -68l-23 18q49 52 49 84q0 11 -9.5 28.5t-9.5 30.5q0 17 12 29t29 12z
" />
    <glyph glyph-name="dagger" unicode="&#x2020;" horiz-adv-x="534" 
d="M237 284l11 150l-83 -6h-110v49h110l83 -6l-9 112v137h56v-137l-9 -112l83 6h110v-49h-110l-83 6l10 -150l-10 -454h-38z" />
    <glyph glyph-name="daggerdbl" unicode="&#x2021;" horiz-adv-x="534" 
d="M239 -24l10 112l-84 -6h-110v49h110l84 -6q-4 41 -8 81q-6 57 -4 79l11 149l-83 -6h-110v49h110l83 -6l-9 112v137h56v-137l-9 -112l83 6h110v-49h-110l-83 6q4 -40 7 -81q5 -53 3 -78l-10 -150l83 6h110v-49h-110l-83 6l9 -112v-145h-56v145z" />
    <glyph glyph-name="bullet" unicode="&#x2022;" horiz-adv-x="316" 
d="M158 188q-42 0 -70 28t-28 70t28 70t70 28t70.5 -28t28.5 -70t-28.5 -70t-70.5 -28z" />
    <glyph glyph-name="ellipsis" unicode="&#x2026;" horiz-adv-x="565" 
d="M470 -9q-19 0 -32 13.5t-13 32.5t13 32t32 13q18 0 31 -13t13 -32t-13 -32.5t-31 -13.5zM282 -9q-18 0 -31 13.5t-13 32.5t13 32t31 13q19 0 31.5 -13t12.5 -32t-12.5 -32.5t-31.5 -13.5zM95 -9q-18 0 -31 13.5t-13 32.5t13 32t31 13t31 -13t13 -32t-13 -32.5t-31 -13.5z
" />
    <glyph glyph-name="perthousand" unicode="&#x2030;" horiz-adv-x="1017" 
d="M474 477h46l-285 -477h-46zM848 26q87 0 87 97q0 43 -23 70t-65 27t-64.5 -26.5t-22.5 -69.5t23 -70.5t65 -27.5zM847 -11q-58 0 -95 37.5t-37 95.5t38 96.5t96 38.5t94.5 -37.5t36.5 -95.5t-37.5 -96.5t-95.5 -38.5zM534 26q42 0 64.5 27t22.5 70t-23 70t-65 27
t-64.5 -26.5t-22.5 -69.5t23 -70.5t65 -27.5zM533 -11q-58 0 -95 37.5t-37 95.5t38 96.5t96 38.5t94.5 -37.5t36.5 -95.5t-37.5 -96.5t-95.5 -38.5zM170 258q42 0 64 27t22 70t-22.5 70.5t-64.5 27.5t-64.5 -27t-22.5 -70t22 -69q24 -29 66 -29zM168 222q-58 0 -94.5 37.5
t-36.5 95.5t37.5 96t95.5 38t94.5 -37t36.5 -95t-37.5 -96.5t-95.5 -38.5z" />
    <glyph glyph-name="guilsinglleft" unicode="&#x2039;" horiz-adv-x="290" 
d="M49 245l138 189h55l-137 -189l137 -188h-55z" />
    <glyph glyph-name="guilsinglright" unicode="&#x203a;" horiz-adv-x="290" 
d="M184 245l-136 190h55l138 -190l-138 -188h-55z" />
    <glyph glyph-name="Euro" unicode="&#x20ac;" horiz-adv-x="580" 
d="M389 -11q-107 0 -180 73q-65 67 -87 177h-111v43h104q-5 45 -1 93h-103v43h109q19 113 86 182q74 77 183 77q86 0 147 -40l-25 -43q-61 37 -124 37q-87 0 -144 -65q-50 -57 -67 -148h225v-43h-230q-2 -11 -2 -40q0 -27 2 -53h230v-43h-222q19 -88 69 -142q57 -61 142 -61
q72 0 128 39l26 -39q-68 -47 -155 -47z" />
    <glyph glyph-name="trademark" unicode="&#x2122;" horiz-adv-x="589" 
d="M113 631h-83v36h209v-36h-84v-253h-42v253zM278 667h63l64 -244l66 244h60l28 -289h-43l-18 244l-66 -244h-56l-64 244l-18 -244h-43z" />
    <glyph glyph-name="partialdiff" unicode="&#x2202;" horiz-adv-x="526" 
d="M229 34q92 0 152 94q51 80 57 179q-80 53 -187 53q-73 0 -114 -49.5t-41 -123.5q0 -62 35 -106q38 -47 98 -47zM227 -11q-80 0 -132.5 57t-52.5 138q0 95 57.5 158t151.5 63q46 0 98 -14q58 -15 90 -40q-9 295 -288 295l14 44q160 0 246 -95q82 -91 82 -253
q0 -134 -65 -235q-74 -118 -201 -118z" />
    <glyph glyph-name="product" unicode="&#x220f;" horiz-adv-x="520" 
d="M70 716h-50v44h480v-44h-50v-716h-53v716h-275v-716h-52v716z" />
    <glyph glyph-name="summation" unicode="&#x2211;" horiz-adv-x="520" 
d="M20 41l265 339l-265 338v42h465v-47h-406l261 -331l-261 -336h421v-47h-480v42z" />
    <glyph glyph-name="fraction" unicode="&#x2215;" horiz-adv-x="91" 
d="M227 666h45l-408 -666h-45z" />
    <glyph glyph-name="radical" unicode="&#x221a;" horiz-adv-x="545" 
d="M47 477h54l154 -412l212 655h53l-240 -720h-50z" />
    <glyph glyph-name="infinity" unicode="&#x221e;" horiz-adv-x="870" 
d="M668 224q43 0 78.5 29.5t35.5 71.5q0 44 -36 73t-81 29q-67 0 -193 -100q131 -103 196 -103zM205 224q63 0 193 100q-64 50 -92 67q-59 36 -104 36q-44 0 -79 -28.5t-35 -71.5q0 -44 36 -73.5t81 -29.5zM201 181q-63 0 -112 40t-49 102q0 63 50 105.5t114 42.5
q57 0 124 -39q34 -20 108 -77q70 54 109 77q68 39 124 39q63 0 110 -39q51 -41 51 -103q0 -64 -52 -107q-48 -41 -113 -41q-57 0 -124 38q-39 23 -108 77q-75 -58 -108 -77q-66 -38 -124 -38z" />
    <glyph glyph-name="integral" unicode="&#x222b;" horiz-adv-x="320" 
d="M21 -235q-33 0 -69 14l14 44q30 -11 61 -11q115 0 115 145v566q0 85 42 138q46 57 129 57q32 0 67 -15l-18 -44q-26 12 -55 12q-60 0 -91 -52q-24 -43 -24 -108v-568q0 -83 -44.5 -130.5t-126.5 -47.5z" />
    <glyph glyph-name="approxequal" unicode="&#x2248;" 
d="M356 222q-52 0 -111 37t-95 37q-48 0 -94 -43l-26 33q56 56 124 56q42 0 103 -36.5t103 -36.5q49 0 97 43l25 -33q-57 -57 -126 -57zM356 314q-52 0 -111 37t-95 37q-48 0 -94 -43l-26 33q56 56 124 56q42 0 103 -36.5t103 -36.5q49 0 97 43l25 -33q-57 -57 -126 -57z
" />
    <glyph glyph-name="approxequal" unicode="&#x22f2;" 
d="M356 222q-52 0 -111 37t-95 37q-48 0 -94 -43l-26 33q56 56 124 56q42 0 103 -36.5t103 -36.5q49 0 97 43l25 -33q-57 -57 -126 -57zM356 314q-52 0 -111 37t-95 37q-48 0 -94 -43l-26 33q56 56 124 56q42 0 103 -36.5t103 -36.5q49 0 97 43l25 -33q-57 -57 -126 -57z
" />
    <glyph glyph-name="notequal" unicode="&#x2260;" 
d="M327 505h45l-53 -100h153v-45h-176l-35 -65h211v-45h-234l-52 -100h-45l52 100h-153v45h176l35 65h-211v45h234z" />
    <glyph glyph-name="lessequal" unicode="&#x2264;" 
d="M38 330l419 198l17 -42l-348 -156l348 -152l-17 -44zM50 45h422v-45h-422v45z" />
    <glyph glyph-name="greaterequal" unicode="&#x2265;" 
d="M474 330l-419 198l-17 -42l348 -156l-348 -152l17 -44zM462 45h-422v-45h422v45z" />
    <glyph glyph-name="lozenge" unicode="&#x25ca;" horiz-adv-x="615" 
d="M518 336l-213 279l-208 -286l213 -281zM37 328l251 341h37l253 -331l-250 -341h-38z" />
  </font>
</defs>
</svg>
